<svg xmlns="http://www.w3.org/2000/svg" viewBox="0 0 1417.3 850.4">
  <defs>
    <style>
      .a {
        fill: none;
        stroke: #000;
        stroke-linecap: round;
        stroke-linejoin: round;
        stroke-width: 0px;
      }
    </style>
  </defs>
  <line class="a" x1="1289.7" y1="544.3" x2="1244.2" y2="532.1"/>
  <path class="a" d="M1244.2,532.1a7.8,7.8,0,0,0-2.2-.2"/>
  <line class="a" x1="1242" y1="531.9" x2="303.9" y2="531.9"/>
  <line class="a" x1="303.9" y1="531.9" x2="303.9" y2="527.3"/>
  <path class="a" d="M303.9,527.3a5.1,5.1,0,0,0-5.1-5.1"/>
  <line class="a" x1="298.8" y1="522.2" x2="280.7" y2="522.2"/>
  <path class="a" d="M280.7,522.2a5.1,5.1,0,0,0-5.1,5.1"/>
  <path class="a" d="M275.6,596.5a5.1,5.1,0,0,0,5.1,5.1"/>
  <line class="a" x1="280.7" y1="601.6" x2="298.8" y2="601.6"/>
  <path class="a" d="M298.8,601.6a5.1,5.1,0,0,0,5.1-5.1"/>
  <line class="a" x1="303.9" y1="596.5" x2="303.9" y2="591.9"/>
  <path class="a" d="M1242.1,591.9l2.1-.2"/>
  <line class="a" x1="1244.2" y1="591.7" x2="1289.7" y2="579.5"/>
  <path class="a" d="M1289.7,579.5a8.6,8.6,0,0,0,6.3-8.3"/>
  <line class="a" x1="1296" y1="571.2" x2="1296" y2="552.6"/>
  <path class="a" d="M1296,552.6a8.6,8.6,0,0,0-6.3-8.3"/>
  <path class="a" d="M1254.4,578.1a2.3,2.3,0,1,1,2.2,2.2,2.2,2.2,0,0,1-2.2-2.2Z"/>
  <path class="a" d="M1254.4,545.7a2.2,2.2,0,0,1,2.2-2.2,2.3,2.3,0,1,1-2.2,2.2Z"/>
  <line class="a" x1="1254.4" y1="578" x2="1251.6" y2="578"/>
  <line class="a" x1="1247.4" y1="573.7" x2="1247.4" y2="550.1"/>
  <path class="a" d="M1247.4,573.7a4.4,4.4,0,0,0,4.2,4.3"/>
  <line class="a" x1="1251.6" y1="545.8" x2="1254.4" y2="545.8"/>
  <path class="a" d="M1251.6,545.8a4.4,4.4,0,0,0-4.2,4.3"/>
  <path class="a" d="M1232.9,578.1a2.3,2.3,0,0,1,2.3-2.3,2.3,2.3,0,1,1,0,4.5,2.3,2.3,0,0,1-2.3-2.2Z"/>
  <path class="a" d="M1232.9,545.7a2.3,2.3,0,0,1,2.3-2.2,2.3,2.3,0,1,1,0,4.5,2.3,2.3,0,0,1-2.3-2.3Z"/>
  <line class="a" x1="1232.9" y1="578" x2="1230.2" y2="578"/>
  <line class="a" x1="1226" y1="573.7" x2="1226" y2="550.1"/>
  <path class="a" d="M1226,573.7a4.4,4.4,0,0,0,4.2,4.3"/>
  <line class="a" x1="1230.2" y1="545.8" x2="1232.9" y2="545.8"/>
  <path class="a" d="M1230.2,545.8a4.4,4.4,0,0,0-4.2,4.3"/>
  <path class="a" d="M1211.5,578.1a2.3,2.3,0,0,1,2.3-2.3,2.3,2.3,0,1,1,0,4.5,2.2,2.2,0,0,1-2.3-2.2Z"/>
  <path class="a" d="M1211.5,545.7a2.2,2.2,0,0,1,2.3-2.2,2.3,2.3,0,1,1,0,4.5,2.3,2.3,0,0,1-2.3-2.3Z"/>
  <line class="a" x1="1211.5" y1="578" x2="1208.8" y2="578"/>
  <line class="a" x1="1204.6" y1="573.7" x2="1204.6" y2="550.1"/>
  <path class="a" d="M1204.6,573.7a4.3,4.3,0,0,0,4.2,4.3"/>
  <line class="a" x1="1208.8" y1="545.8" x2="1211.5" y2="545.8"/>
  <path class="a" d="M1208.8,545.8a4.3,4.3,0,0,0-4.2,4.3"/>
  <path class="a" d="M1190.1,578.1a2.3,2.3,0,1,1,4.5,0,2.2,2.2,0,0,1-2.2,2.2,2.2,2.2,0,0,1-2.3-2.2Z"/>
  <path class="a" d="M1190.1,545.7a2.2,2.2,0,0,1,2.3-2.2,2.2,2.2,0,0,1,2.2,2.2,2.3,2.3,0,1,1-4.5,0Z"/>
  <line class="a" x1="1190.1" y1="578" x2="1187.3" y2="578"/>
  <line class="a" x1="1183.2" y1="573.7" x2="1183.2" y2="550.1"/>
  <path class="a" d="M1183.2,573.7a4.3,4.3,0,0,0,4.1,4.3"/>
  <line class="a" x1="1187.3" y1="545.8" x2="1190.1" y2="545.8"/>
  <path class="a" d="M1187.3,545.8a4.3,4.3,0,0,0-4.1,4.3"/>
  <path class="a" d="M1168.7,578.1a2.3,2.3,0,1,1,2.2,2.2,2.2,2.2,0,0,1-2.2-2.2Z"/>
  <path class="a" d="M1168.7,545.7a2.2,2.2,0,0,1,2.2-2.2,2.3,2.3,0,1,1-2.2,2.2Z"/>
  <line class="a" x1="1168.7" y1="578" x2="1165.9" y2="578"/>
  <line class="a" x1="1161.7" y1="573.7" x2="1161.7" y2="550.1"/>
  <path class="a" d="M1161.7,573.7a4.4,4.4,0,0,0,4.2,4.3"/>
  <line class="a" x1="1165.9" y1="545.8" x2="1168.7" y2="545.8"/>
  <path class="a" d="M1165.9,545.8a4.4,4.4,0,0,0-4.2,4.3"/>
  <path class="a" d="M1147.3,578.1a2.3,2.3,0,1,1,2.2,2.2,2.2,2.2,0,0,1-2.2-2.2Z"/>
  <path class="a" d="M1147.3,545.7a2.2,2.2,0,0,1,2.2-2.2,2.3,2.3,0,1,1-2.2,2.2Z"/>
  <line class="a" x1="1147.3" y1="578" x2="1144.5" y2="578"/>
  <line class="a" x1="1140.3" y1="573.7" x2="1140.3" y2="550.1"/>
  <path class="a" d="M1140.3,573.7a4.4,4.4,0,0,0,4.2,4.3"/>
  <line class="a" x1="1144.5" y1="545.8" x2="1147.3" y2="545.8"/>
  <path class="a" d="M1144.5,545.8a4.4,4.4,0,0,0-4.2,4.3"/>
  <path class="a" d="M1125.8,578.1a2.3,2.3,0,0,1,2.3-2.3,2.3,2.3,0,1,1,0,4.5,2.2,2.2,0,0,1-2.3-2.2Z"/>
  <path class="a" d="M1125.8,545.7a2.2,2.2,0,0,1,2.3-2.2,2.3,2.3,0,1,1,0,4.5,2.3,2.3,0,0,1-2.3-2.3Z"/>
  <line class="a" x1="1125.8" y1="578" x2="1123.1" y2="578"/>
  <line class="a" x1="1118.9" y1="573.7" x2="1118.9" y2="550.1"/>
  <path class="a" d="M1118.9,573.7a4.4,4.4,0,0,0,4.2,4.3"/>
  <line class="a" x1="1123.1" y1="545.8" x2="1125.8" y2="545.8"/>
  <path class="a" d="M1123.1,545.8a4.4,4.4,0,0,0-4.2,4.3"/>
  <path class="a" d="M1104.4,578.1a2.3,2.3,0,1,1,4.5,0,2.2,2.2,0,0,1-2.2,2.2,2.2,2.2,0,0,1-2.3-2.2Z"/>
  <path class="a" d="M1104.4,545.7a2.2,2.2,0,0,1,2.3-2.2,2.2,2.2,0,0,1,2.2,2.2,2.3,2.3,0,1,1-4.5,0Z"/>
  <line class="a" x1="1104.4" y1="578" x2="1101.7" y2="578"/>
  <line class="a" x1="1097.5" y1="573.7" x2="1097.5" y2="550.1"/>
  <path class="a" d="M1097.5,573.7a4.3,4.3,0,0,0,4.2,4.3"/>
  <line class="a" x1="1101.7" y1="545.8" x2="1104.4" y2="545.8"/>
  <path class="a" d="M1101.7,545.8a4.3,4.3,0,0,0-4.2,4.3"/>
  <path class="a" d="M1083,578.1a2.3,2.3,0,1,1,4.5,0,2.2,2.2,0,0,1-2.2,2.2,2.2,2.2,0,0,1-2.3-2.2Z"/>
  <path class="a" d="M1083,545.7a2.2,2.2,0,0,1,2.3-2.2,2.2,2.2,0,0,1,2.2,2.2,2.3,2.3,0,1,1-4.5,0Z"/>
  <line class="a" x1="1083" y1="578" x2="1080.2" y2="578"/>
  <line class="a" x1="1076" y1="573.7" x2="1076" y2="550.1"/>
  <path class="a" d="M1076,573.7a4.4,4.4,0,0,0,4.2,4.3"/>
  <line class="a" x1="1080.2" y1="545.8" x2="1083" y2="545.8"/>
  <path class="a" d="M1080.2,545.8a4.4,4.4,0,0,0-4.2,4.3"/>
  <path class="a" d="M1061.6,578.1a2.3,2.3,0,1,1,2.2,2.2,2.2,2.2,0,0,1-2.2-2.2Z"/>
  <path class="a" d="M1061.6,545.7a2.2,2.2,0,0,1,2.2-2.2,2.3,2.3,0,1,1-2.2,2.2Z"/>
  <line class="a" x1="1061.6" y1="578" x2="1058.8" y2="578"/>
  <line class="a" x1="1054.6" y1="573.7" x2="1054.6" y2="550.1"/>
  <path class="a" d="M1054.6,573.7a4.4,4.4,0,0,0,4.2,4.3"/>
  <line class="a" x1="1058.8" y1="545.8" x2="1061.6" y2="545.8"/>
  <path class="a" d="M1058.8,545.8a4.4,4.4,0,0,0-4.2,4.3"/>
  <path class="a" d="M1040.1,578.1a2.3,2.3,0,0,1,2.3-2.3,2.3,2.3,0,1,1,0,4.5,2.3,2.3,0,0,1-2.3-2.2Z"/>
  <path class="a" d="M1040.1,545.7a2.3,2.3,0,0,1,2.3-2.2,2.3,2.3,0,1,1,0,4.5,2.3,2.3,0,0,1-2.3-2.3Z"/>
  <line class="a" x1="1040.1" y1="578" x2="1037.4" y2="578"/>
  <line class="a" x1="1033.2" y1="573.7" x2="1033.2" y2="550.1"/>
  <path class="a" d="M1033.2,573.7a4.4,4.4,0,0,0,4.2,4.3"/>
  <line class="a" x1="1037.4" y1="545.8" x2="1040.1" y2="545.8"/>
  <path class="a" d="M1037.4,545.8a4.4,4.4,0,0,0-4.2,4.3"/>
  <path class="a" d="M1018.7,578.1a2.3,2.3,0,0,1,2.3-2.3,2.3,2.3,0,1,1,0,4.5,2.2,2.2,0,0,1-2.3-2.2Z"/>
  <path class="a" d="M1018.7,545.7a2.2,2.2,0,0,1,2.3-2.2,2.3,2.3,0,1,1,0,4.5,2.3,2.3,0,0,1-2.3-2.3Z"/>
  <line class="a" x1="1018.7" y1="578" x2="1016" y2="578"/>
  <line class="a" x1="1011.8" y1="573.7" x2="1011.8" y2="550.1"/>
  <path class="a" d="M1011.8,573.7a4.3,4.3,0,0,0,4.2,4.3"/>
  <line class="a" x1="1016" y1="545.8" x2="1018.7" y2="545.8"/>
  <path class="a" d="M1016,545.8a4.3,4.3,0,0,0-4.2,4.3"/>
  <path class="a" d="M997.3,578.1a2.3,2.3,0,1,1,4.5,0,2.2,2.2,0,0,1-2.2,2.2,2.2,2.2,0,0,1-2.3-2.2Z"/>
  <path class="a" d="M997.3,545.7a2.2,2.2,0,0,1,2.3-2.2,2.2,2.2,0,0,1,2.2,2.2,2.3,2.3,0,1,1-4.5,0Z"/>
  <line class="a" x1="997.3" y1="578" x2="994.5" y2="578"/>
  <line class="a" x1="990.4" y1="573.7" x2="990.4" y2="550.1"/>
  <path class="a" d="M990.4,573.7a4.3,4.3,0,0,0,4.1,4.3"/>
  <line class="a" x1="994.5" y1="545.8" x2="997.3" y2="545.8"/>
  <path class="a" d="M994.5,545.8a4.3,4.3,0,0,0-4.1,4.3"/>
  <path class="a" d="M975.9,578.1a2.3,2.3,0,1,1,2.2,2.2,2.2,2.2,0,0,1-2.2-2.2Z"/>
  <path class="a" d="M975.9,545.7a2.2,2.2,0,0,1,2.2-2.2,2.3,2.3,0,1,1-2.2,2.2Z"/>
  <line class="a" x1="975.9" y1="578" x2="973.1" y2="578"/>
  <line class="a" x1="968.9" y1="573.7" x2="968.9" y2="550.1"/>
  <path class="a" d="M968.9,573.7a4.4,4.4,0,0,0,4.2,4.3"/>
  <line class="a" x1="973.1" y1="545.8" x2="975.9" y2="545.8"/>
  <path class="a" d="M973.1,545.8a4.4,4.4,0,0,0-4.2,4.3"/>
  <path class="a" d="M954.5,578.1a2.3,2.3,0,1,1,2.2,2.2,2.2,2.2,0,0,1-2.2-2.2Z"/>
  <path class="a" d="M954.5,545.7a2.2,2.2,0,0,1,2.2-2.2,2.3,2.3,0,1,1-2.2,2.2Z"/>
  <line class="a" x1="954.5" y1="578" x2="951.7" y2="578"/>
  <line class="a" x1="947.5" y1="573.7" x2="947.5" y2="550.1"/>
  <path class="a" d="M947.5,573.7a4.4,4.4,0,0,0,4.2,4.3"/>
  <line class="a" x1="951.7" y1="545.8" x2="954.5" y2="545.8"/>
  <path class="a" d="M951.7,545.8a4.4,4.4,0,0,0-4.2,4.3"/>
  <path class="a" d="M933,578.1a2.3,2.3,0,0,1,2.3-2.3,2.3,2.3,0,1,1,0,4.5,2.3,2.3,0,0,1-2.3-2.2Z"/>
  <path class="a" d="M933,545.7a2.3,2.3,0,0,1,2.3-2.2,2.3,2.3,0,1,1,0,4.5,2.3,2.3,0,0,1-2.3-2.3Z"/>
  <line class="a" x1="933" y1="578" x2="930.3" y2="578"/>
  <line class="a" x1="926.1" y1="573.7" x2="926.1" y2="550.1"/>
  <path class="a" d="M926.1,573.7a4.4,4.4,0,0,0,4.2,4.3"/>
  <line class="a" x1="930.3" y1="545.8" x2="933" y2="545.8"/>
  <path class="a" d="M930.3,545.8a4.4,4.4,0,0,0-4.2,4.3"/>
  <path class="a" d="M911.6,578.1a2.3,2.3,0,0,1,2.3-2.3,2.3,2.3,0,1,1,0,4.5,2.2,2.2,0,0,1-2.3-2.2Z"/>
  <path class="a" d="M911.6,545.7a2.2,2.2,0,0,1,2.3-2.2,2.3,2.3,0,1,1,0,4.5,2.3,2.3,0,0,1-2.3-2.3Z"/>
  <line class="a" x1="911.6" y1="578" x2="908.9" y2="578"/>
  <line class="a" x1="904.7" y1="573.7" x2="904.7" y2="550.1"/>
  <path class="a" d="M904.7,573.7a4.3,4.3,0,0,0,4.2,4.3"/>
  <line class="a" x1="908.9" y1="545.8" x2="911.6" y2="545.8"/>
  <path class="a" d="M908.9,545.8a4.3,4.3,0,0,0-4.2,4.3"/>
  <path class="a" d="M890.2,578.1a2.3,2.3,0,1,1,4.5,0,2.2,2.2,0,0,1-2.2,2.2,2.2,2.2,0,0,1-2.3-2.2Z"/>
  <path class="a" d="M890.2,545.7a2.2,2.2,0,0,1,2.3-2.2,2.2,2.2,0,0,1,2.2,2.2,2.3,2.3,0,1,1-4.5,0Z"/>
  <line class="a" x1="890.2" y1="578" x2="887.4" y2="578"/>
  <line class="a" x1="883.3" y1="573.7" x2="883.3" y2="550.1"/>
  <path class="a" d="M883.3,573.7a4.3,4.3,0,0,0,4.1,4.3"/>
  <line class="a" x1="887.4" y1="545.8" x2="890.2" y2="545.8"/>
  <path class="a" d="M887.4,545.8a4.3,4.3,0,0,0-4.1,4.3"/>
  <line class="a" x1="303.9" y1="591.9" x2="345.3" y2="591.9"/>
  <line class="a" x1="297.6" y1="604.4" x2="343.1" y2="592.2"/>
  <path class="a" d="M345.3,591.9a7.8,7.8,0,0,0-2.2.3"/>
  <line class="a" x1="345.3" y1="591.9" x2="1283.4" y2="591.9"/>
  <line class="a" x1="1283.4" y1="591.9" x2="1283.4" y2="587.4"/>
  <path class="a" d="M1288.5,582.3a5.1,5.1,0,0,0-5.1,5.1"/>
  <line class="a" x1="1288.5" y1="582.3" x2="1306.6" y2="582.3"/>
  <path class="a" d="M1311.7,587.4a5.1,5.1,0,0,0-5.1-5.1"/>
  <line class="a" x1="1311.7" y1="587.4" x2="1311.7" y2="656.6"/>
  <path class="a" d="M1306.6,661.7a5.1,5.1,0,0,0,5.1-5.1"/>
  <line class="a" x1="1306.6" y1="661.7" x2="1288.5" y2="661.7"/>
  <path class="a" d="M1283.4,656.6a5.1,5.1,0,0,0,5.1,5.1"/>
  <line class="a" x1="1283.4" y1="656.6" x2="1283.4" y2="652"/>
  <path class="a" d="M343.1,651.7a7.8,7.8,0,0,0,2.2.3"/>
  <line class="a" x1="343.1" y1="651.7" x2="297.6" y2="639.5"/>
  <path class="a" d="M291.3,631.3a8.4,8.4,0,0,0,6.3,8.2"/>
  <line class="a" x1="291.3" y1="631.3" x2="291.3" y2="612.6"/>
  <path class="a" d="M297.6,604.4a8.4,8.4,0,0,0-6.3,8.2"/>
  <path class="a" d="M328.4,638.1a2.2,2.2,0,0,1,2.3-2.2,2.2,2.2,0,0,1,2.2,2.2,2.3,2.3,0,1,1-4.5,0Z"/>
  <path class="a" d="M328.4,605.8a2.3,2.3,0,1,1,4.5,0,2.3,2.3,0,1,1-4.5,0Z"/>
  <line class="a" x1="332.9" y1="638.1" x2="335.7" y2="638.1"/>
  <line class="a" x1="339.9" y1="633.8" x2="339.9" y2="610.1"/>
  <path class="a" d="M335.7,638.1a4.4,4.4,0,0,0,4.2-4.3"/>
  <line class="a" x1="335.7" y1="605.9" x2="332.9" y2="605.9"/>
  <path class="a" d="M339.9,610.1a4.2,4.2,0,0,0-4.2-4.2"/>
  <path class="a" d="M349.8,638.1a2.2,2.2,0,0,1,2.3-2.2,2.3,2.3,0,1,1,0,4.5,2.3,2.3,0,0,1-2.3-2.3Z"/>
  <path class="a" d="M349.8,605.8a2.3,2.3,0,0,1,2.3-2.3,2.4,2.4,0,0,1,2.3,2.3,2.3,2.3,0,0,1-2.3,2.3,2.3,2.3,0,0,1-2.3-2.3Z"/>
  <line class="a" x1="354.4" y1="638.1" x2="357.1" y2="638.1"/>
  <line class="a" x1="361.3" y1="633.8" x2="361.3" y2="610.1"/>
  <path class="a" d="M357.1,638.1a4.4,4.4,0,0,0,4.2-4.3"/>
  <line class="a" x1="357.1" y1="605.9" x2="354.4" y2="605.9"/>
  <path class="a" d="M361.3,610.1a4.2,4.2,0,0,0-4.2-4.2"/>
  <path class="a" d="M371.2,638.1a2.3,2.3,0,0,1,2.3-2.2,2.3,2.3,0,1,1,0,4.5,2.3,2.3,0,0,1-2.3-2.3Z"/>
  <path class="a" d="M371.2,605.8a2.4,2.4,0,0,1,2.3-2.3,2.3,2.3,0,0,1,2.3,2.3,2.3,2.3,0,0,1-2.3,2.3,2.3,2.3,0,0,1-2.3-2.3Z"/>
  <line class="a" x1="375.8" y1="638.1" x2="378.5" y2="638.1"/>
  <line class="a" x1="382.7" y1="633.8" x2="382.7" y2="610.1"/>
  <path class="a" d="M378.5,638.1a4.3,4.3,0,0,0,4.2-4.3"/>
  <line class="a" x1="378.5" y1="605.9" x2="375.8" y2="605.9"/>
  <path class="a" d="M382.7,610.1a4.2,4.2,0,0,0-4.2-4.2"/>
  <path class="a" d="M392.7,638.1a2.2,2.2,0,0,1,2.2-2.2,2.3,2.3,0,1,1-2.2,2.2Z"/>
  <path class="a" d="M392.7,605.8a2.3,2.3,0,1,1,4.5,0,2.3,2.3,0,1,1-4.5,0Z"/>
  <line class="a" x1="397.2" y1="638.1" x2="400" y2="638.1"/>
  <line class="a" x1="404.1" y1="633.8" x2="404.1" y2="610.1"/>
  <path class="a" d="M400,638.1a4.3,4.3,0,0,0,4.1-4.3"/>
  <line class="a" x1="400" y1="605.9" x2="397.2" y2="605.9"/>
  <path class="a" d="M404.1,610.1a4.1,4.1,0,0,0-4.1-4.2"/>
  <path class="a" d="M414.1,638.1a2.2,2.2,0,0,1,2.3-2.2,2.2,2.2,0,0,1,2.2,2.2,2.3,2.3,0,1,1-4.5,0Z"/>
  <path class="a" d="M414.1,605.8a2.3,2.3,0,1,1,4.5,0,2.3,2.3,0,1,1-4.5,0Z"/>
  <line class="a" x1="418.6" y1="638.1" x2="421.4" y2="638.1"/>
  <line class="a" x1="425.6" y1="633.8" x2="425.6" y2="610.1"/>
  <path class="a" d="M421.4,638.1a4.4,4.4,0,0,0,4.2-4.3"/>
  <line class="a" x1="421.4" y1="605.9" x2="418.6" y2="605.9"/>
  <path class="a" d="M425.6,610.1a4.2,4.2,0,0,0-4.2-4.2"/>
  <path class="a" d="M435.5,638.1a2.2,2.2,0,0,1,2.3-2.2,2.2,2.2,0,0,1,2.2,2.2,2.3,2.3,0,1,1-4.5,0Z"/>
  <path class="a" d="M435.5,605.8a2.3,2.3,0,1,1,4.5,0,2.3,2.3,0,1,1-4.5,0Z"/>
  <line class="a" x1="440" y1="638.1" x2="442.8" y2="638.1"/>
  <line class="a" x1="447" y1="633.8" x2="447" y2="610.1"/>
  <path class="a" d="M442.8,638.1a4.4,4.4,0,0,0,4.2-4.3"/>
  <line class="a" x1="442.8" y1="605.9" x2="440" y2="605.9"/>
  <path class="a" d="M447,610.1a4.2,4.2,0,0,0-4.2-4.2"/>
  <path class="a" d="M456.9,638.1a2.2,2.2,0,0,1,2.3-2.2,2.3,2.3,0,1,1,0,4.5,2.3,2.3,0,0,1-2.3-2.3Z"/>
  <path class="a" d="M456.9,605.8a2.3,2.3,0,0,1,2.3-2.3,2.4,2.4,0,0,1,2.3,2.3,2.3,2.3,0,0,1-2.3,2.3,2.3,2.3,0,0,1-2.3-2.3Z"/>
  <line class="a" x1="461.5" y1="638.1" x2="464.2" y2="638.1"/>
  <line class="a" x1="468.4" y1="633.8" x2="468.4" y2="610.1"/>
  <path class="a" d="M464.2,638.1a4.4,4.4,0,0,0,4.2-4.3"/>
  <line class="a" x1="464.2" y1="605.9" x2="461.5" y2="605.9"/>
  <path class="a" d="M468.4,610.1a4.2,4.2,0,0,0-4.2-4.2"/>
  <path class="a" d="M478.3,638.1a2.3,2.3,0,0,1,2.3-2.2,2.3,2.3,0,1,1,0,4.5,2.3,2.3,0,0,1-2.3-2.3Z"/>
  <path class="a" d="M478.3,605.8a2.4,2.4,0,0,1,2.3-2.3,2.3,2.3,0,0,1,2.3,2.3,2.3,2.3,0,0,1-2.3,2.3,2.3,2.3,0,0,1-2.3-2.3Z"/>
  <line class="a" x1="482.9" y1="638.1" x2="485.6" y2="638.1"/>
  <line class="a" x1="489.8" y1="633.8" x2="489.8" y2="610.1"/>
  <path class="a" d="M485.6,638.1a4.3,4.3,0,0,0,4.2-4.3"/>
  <line class="a" x1="485.6" y1="605.9" x2="482.9" y2="605.9"/>
  <path class="a" d="M489.8,610.1a4.2,4.2,0,0,0-4.2-4.2"/>
  <path class="a" d="M499.8,638.1a2.2,2.2,0,0,1,2.2-2.2,2.3,2.3,0,1,1-2.2,2.2Z"/>
  <path class="a" d="M499.8,605.8a2.3,2.3,0,1,1,4.5,0,2.3,2.3,0,1,1-4.5,0Z"/>
  <line class="a" x1="504.3" y1="638.1" x2="507.1" y2="638.1"/>
  <line class="a" x1="511.2" y1="633.8" x2="511.2" y2="610.1"/>
  <path class="a" d="M507.1,638.1a4.3,4.3,0,0,0,4.1-4.3"/>
  <line class="a" x1="507.1" y1="605.9" x2="504.3" y2="605.9"/>
  <path class="a" d="M511.2,610.1a4.1,4.1,0,0,0-4.1-4.2"/>
  <path class="a" d="M521.2,638.1a2.2,2.2,0,0,1,2.3-2.2,2.2,2.2,0,0,1,2.2,2.2,2.3,2.3,0,1,1-4.5,0Z"/>
  <path class="a" d="M521.2,605.8a2.3,2.3,0,1,1,4.5,0,2.3,2.3,0,1,1-4.5,0Z"/>
  <line class="a" x1="525.7" y1="638.1" x2="528.5" y2="638.1"/>
  <line class="a" x1="532.7" y1="633.8" x2="532.7" y2="610.1"/>
  <path class="a" d="M528.5,638.1a4.4,4.4,0,0,0,4.2-4.3"/>
  <line class="a" x1="528.5" y1="605.9" x2="525.7" y2="605.9"/>
  <path class="a" d="M532.7,610.1a4.2,4.2,0,0,0-4.2-4.2"/>
  <path class="a" d="M542.6,638.1a2.2,2.2,0,0,1,2.3-2.2,2.2,2.2,0,0,1,2.2,2.2,2.3,2.3,0,1,1-4.5,0Z"/>
  <path class="a" d="M542.6,605.8a2.3,2.3,0,1,1,4.5,0,2.3,2.3,0,1,1-4.5,0Z"/>
  <line class="a" x1="547.1" y1="638.1" x2="549.9" y2="638.1"/>
  <line class="a" x1="554.1" y1="633.8" x2="554.1" y2="610.1"/>
  <path class="a" d="M549.9,638.1a4.4,4.4,0,0,0,4.2-4.3"/>
  <line class="a" x1="549.9" y1="605.9" x2="547.1" y2="605.9"/>
  <path class="a" d="M554.1,610.1a4.2,4.2,0,0,0-4.2-4.2"/>
  <path class="a" d="M564,638.1a2.3,2.3,0,1,1,2.3,2.3,2.2,2.2,0,0,1-2.3-2.3Z"/>
  <path class="a" d="M564,605.8a2.3,2.3,0,0,1,4.6,0,2.3,2.3,0,0,1-4.6,0Z"/>
  <line class="a" x1="568.6" y1="638.1" x2="571.3" y2="638.1"/>
  <line class="a" x1="575.5" y1="633.8" x2="575.5" y2="610.1"/>
  <path class="a" d="M571.3,638.1a4.4,4.4,0,0,0,4.2-4.3"/>
  <line class="a" x1="571.3" y1="605.9" x2="568.6" y2="605.9"/>
  <path class="a" d="M575.5,610.1a4.2,4.2,0,0,0-4.2-4.2"/>
  <path class="a" d="M585.5,638.1a2.2,2.2,0,0,1,2.2-2.2,2.3,2.3,0,1,1-2.2,2.2Z"/>
  <path class="a" d="M585.5,605.8a2.3,2.3,0,1,1,4.5,0,2.3,2.3,0,1,1-4.5,0Z"/>
  <line class="a" x1="590" y1="638.1" x2="592.7" y2="638.1"/>
  <line class="a" x1="596.9" y1="633.8" x2="596.9" y2="610.1"/>
  <path class="a" d="M592.7,638.1a4.3,4.3,0,0,0,4.2-4.3"/>
  <line class="a" x1="592.7" y1="605.9" x2="590" y2="605.9"/>
  <path class="a" d="M596.9,610.1a4.2,4.2,0,0,0-4.2-4.2"/>
  <path class="a" d="M606.9,638.1a2.2,2.2,0,0,1,2.2-2.2,2.3,2.3,0,1,1-2.2,2.2Z"/>
  <path class="a" d="M606.9,605.8a2.3,2.3,0,1,1,4.5,0,2.3,2.3,0,1,1-4.5,0Z"/>
  <line class="a" x1="611.4" y1="638.1" x2="614.2" y2="638.1"/>
  <line class="a" x1="618.4" y1="633.8" x2="618.4" y2="610.1"/>
  <path class="a" d="M614.2,638.1a4.4,4.4,0,0,0,4.2-4.3"/>
  <line class="a" x1="614.2" y1="605.9" x2="611.4" y2="605.9"/>
  <path class="a" d="M618.4,610.1a4.2,4.2,0,0,0-4.2-4.2"/>
  <path class="a" d="M628.3,638.1a2.2,2.2,0,0,1,2.3-2.2,2.2,2.2,0,0,1,2.2,2.2,2.3,2.3,0,1,1-4.5,0Z"/>
  <path class="a" d="M628.3,605.8a2.3,2.3,0,1,1,4.5,0,2.3,2.3,0,1,1-4.5,0Z"/>
  <line class="a" x1="632.8" y1="638.1" x2="635.6" y2="638.1"/>
  <line class="a" x1="639.8" y1="633.8" x2="639.8" y2="610.1"/>
  <path class="a" d="M635.6,638.1a4.4,4.4,0,0,0,4.2-4.3"/>
  <line class="a" x1="635.6" y1="605.9" x2="632.8" y2="605.9"/>
  <path class="a" d="M639.8,610.1a4.2,4.2,0,0,0-4.2-4.2"/>
  <path class="a" d="M649.7,638.1a2.2,2.2,0,0,1,2.3-2.2,2.3,2.3,0,1,1,0,4.5,2.3,2.3,0,0,1-2.3-2.3Z"/>
  <path class="a" d="M649.7,605.8a2.3,2.3,0,0,1,2.3-2.3,2.4,2.4,0,0,1,2.3,2.3,2.3,2.3,0,0,1-2.3,2.3,2.3,2.3,0,0,1-2.3-2.3Z"/>
  <line class="a" x1="654.3" y1="638.1" x2="657" y2="638.1"/>
  <line class="a" x1="661.2" y1="633.8" x2="661.2" y2="610.1"/>
  <path class="a" d="M657,638.1a4.4,4.4,0,0,0,4.2-4.3"/>
  <line class="a" x1="657" y1="605.9" x2="654.3" y2="605.9"/>
  <path class="a" d="M661.2,610.1a4.2,4.2,0,0,0-4.2-4.2"/>
  <path class="a" d="M671.1,638.1a2.3,2.3,0,0,1,2.3-2.2,2.3,2.3,0,1,1,0,4.5,2.3,2.3,0,0,1-2.3-2.3Z"/>
  <path class="a" d="M671.1,605.8a2.4,2.4,0,0,1,2.3-2.3,2.3,2.3,0,0,1,2.3,2.3,2.3,2.3,0,0,1-2.3,2.3,2.3,2.3,0,0,1-2.3-2.3Z"/>
  <line class="a" x1="675.7" y1="638.1" x2="678.4" y2="638.1"/>
  <line class="a" x1="682.6" y1="633.8" x2="682.6" y2="610.1"/>
  <path class="a" d="M678.4,638.1a4.3,4.3,0,0,0,4.2-4.3"/>
  <line class="a" x1="678.4" y1="605.9" x2="675.7" y2="605.9"/>
  <path class="a" d="M682.6,610.1a4.2,4.2,0,0,0-4.2-4.2"/>
  <path class="a" d="M692.6,638.1a2.2,2.2,0,0,1,2.2-2.2,2.3,2.3,0,1,1-2.2,2.2Z"/>
  <path class="a" d="M692.6,605.8a2.3,2.3,0,1,1,4.5,0,2.3,2.3,0,1,1-4.5,0Z"/>
  <line class="a" x1="697.1" y1="638.1" x2="699.9" y2="638.1"/>
  <line class="a" x1="704" y1="633.8" x2="704" y2="610.1"/>
  <path class="a" d="M699.9,638.1a4.3,4.3,0,0,0,4.1-4.3"/>
  <line class="a" x1="699.9" y1="605.9" x2="697.1" y2="605.9"/>
  <path class="a" d="M704,610.1a4.1,4.1,0,0,0-4.1-4.2"/>
  <line class="a" x1="1283.4" y1="652" x2="1242" y2="652"/>
  <line class="a" x1="1289.7" y1="664.5" x2="1244.2" y2="652.3"/>
  <path class="a" d="M1244.2,652.3a7.8,7.8,0,0,0-2.2-.3"/>
  <line class="a" x1="1242" y1="652" x2="303.9" y2="652"/>
  <line class="a" x1="303.9" y1="652" x2="303.9" y2="647.4"/>
  <path class="a" d="M303.9,647.4a5.1,5.1,0,0,0-5.1-5.1"/>
  <line class="a" x1="298.8" y1="642.3" x2="280.7" y2="642.3"/>
  <path class="a" d="M280.7,642.3a5.1,5.1,0,0,0-5.1,5.1"/>
  <path class="a" d="M275.6,716.6a5.1,5.1,0,0,0,5.1,5.1"/>
  <line class="a" x1="280.7" y1="721.7" x2="298.8" y2="721.7"/>
  <path class="a" d="M298.8,721.7a5.1,5.1,0,0,0,5.1-5.1"/>
  <line class="a" x1="303.9" y1="716.6" x2="303.9" y2="712.1"/>
  <path class="a" d="M1242.1,712.1a7.6,7.6,0,0,0,2.1-.3"/>
  <line class="a" x1="1244.2" y1="711.8" x2="1289.7" y2="699.6"/>
  <path class="a" d="M1289.7,699.6a8.6,8.6,0,0,0,6.3-8.2"/>
  <line class="a" x1="1296" y1="691.4" x2="1296" y2="672.7"/>
  <path class="a" d="M1296,672.7a8.5,8.5,0,0,0-6.3-8.2"/>
  <path class="a" d="M1254.4,698.2a2.3,2.3,0,1,1,4.5,0,2.3,2.3,0,1,1-4.5,0Z"/>
  <path class="a" d="M1254.4,665.9a2.3,2.3,0,1,1,2.2,2.2,2.2,2.2,0,0,1-2.2-2.2Z"/>
  <line class="a" x1="1254.4" y1="698.2" x2="1251.6" y2="698.1"/>
  <line class="a" x1="1247.4" y1="693.9" x2="1247.4" y2="670.2"/>
  <path class="a" d="M1247.4,693.9a4.2,4.2,0,0,0,4.2,4.2"/>
  <line class="a" x1="1251.6" y1="666" x2="1254.4" y2="665.9"/>
  <path class="a" d="M1251.6,666a4.2,4.2,0,0,0-4.2,4.2"/>
  <path class="a" d="M1232.9,698.2a2.3,2.3,0,0,1,2.3-2.3,2.3,2.3,0,0,1,2.3,2.3,2.3,2.3,0,0,1-2.3,2.3,2.4,2.4,0,0,1-2.3-2.3Z"/>
  <path class="a" d="M1232.9,665.9a2.3,2.3,0,0,1,2.3-2.3,2.3,2.3,0,1,1,0,4.5,2.3,2.3,0,0,1-2.3-2.2Z"/>
  <line class="a" x1="1232.9" y1="698.2" x2="1230.2" y2="698.1"/>
  <line class="a" x1="1226" y1="693.9" x2="1226" y2="670.2"/>
  <path class="a" d="M1226,693.9a4.2,4.2,0,0,0,4.2,4.2"/>
  <line class="a" x1="1230.2" y1="666" x2="1232.9" y2="665.9"/>
  <path class="a" d="M1230.2,666a4.2,4.2,0,0,0-4.2,4.2"/>
  <path class="a" d="M1211.5,698.2a2.3,2.3,0,0,1,2.3-2.3,2.3,2.3,0,0,1,2.3,2.3,2.4,2.4,0,0,1-2.3,2.3,2.3,2.3,0,0,1-2.3-2.3Z"/>
  <path class="a" d="M1211.5,665.9a2.3,2.3,0,0,1,2.3-2.3,2.3,2.3,0,1,1,0,4.5,2.2,2.2,0,0,1-2.3-2.2Z"/>
  <line class="a" x1="1211.5" y1="698.2" x2="1208.8" y2="698.1"/>
  <line class="a" x1="1204.6" y1="693.9" x2="1204.6" y2="670.2"/>
  <path class="a" d="M1204.6,693.9a4.2,4.2,0,0,0,4.2,4.2"/>
  <line class="a" x1="1208.8" y1="666" x2="1211.5" y2="665.9"/>
  <path class="a" d="M1208.8,666a4.2,4.2,0,0,0-4.2,4.2"/>
  <path class="a" d="M1190.1,698.2a2.3,2.3,0,1,1,4.5,0,2.3,2.3,0,1,1-4.5,0Z"/>
  <path class="a" d="M1190.1,665.9a2.3,2.3,0,1,1,4.5,0,2.2,2.2,0,0,1-2.2,2.2,2.2,2.2,0,0,1-2.3-2.2Z"/>
  <line class="a" x1="1190.1" y1="698.2" x2="1187.3" y2="698.1"/>
  <line class="a" x1="1183.2" y1="693.9" x2="1183.2" y2="670.2"/>
  <path class="a" d="M1183.2,693.9a4.1,4.1,0,0,0,4.1,4.2"/>
  <line class="a" x1="1187.3" y1="666" x2="1190.1" y2="665.9"/>
  <path class="a" d="M1187.3,666a4.1,4.1,0,0,0-4.1,4.2"/>
  <path class="a" d="M1168.7,698.2a2.3,2.3,0,1,1,4.5,0,2.3,2.3,0,1,1-4.5,0Z"/>
  <path class="a" d="M1168.7,665.9a2.3,2.3,0,1,1,2.2,2.2,2.2,2.2,0,0,1-2.2-2.2Z"/>
  <line class="a" x1="1168.7" y1="698.2" x2="1165.9" y2="698.1"/>
  <line class="a" x1="1161.7" y1="693.9" x2="1161.7" y2="670.2"/>
  <path class="a" d="M1161.7,693.9a4.2,4.2,0,0,0,4.2,4.2"/>
  <line class="a" x1="1165.9" y1="666" x2="1168.7" y2="665.9"/>
  <path class="a" d="M1165.9,666a4.2,4.2,0,0,0-4.2,4.2"/>
  <path class="a" d="M1147.3,698.2a2.3,2.3,0,1,1,4.5,0,2.3,2.3,0,1,1-4.5,0Z"/>
  <path class="a" d="M1147.3,665.9a2.3,2.3,0,1,1,2.2,2.2,2.2,2.2,0,0,1-2.2-2.2Z"/>
  <line class="a" x1="1147.3" y1="698.2" x2="1144.5" y2="698.1"/>
  <line class="a" x1="1140.3" y1="693.9" x2="1140.3" y2="670.2"/>
  <path class="a" d="M1140.3,693.9a4.2,4.2,0,0,0,4.2,4.2"/>
  <line class="a" x1="1144.5" y1="666" x2="1147.3" y2="665.9"/>
  <path class="a" d="M1144.5,666a4.2,4.2,0,0,0-4.2,4.2"/>
  <path class="a" d="M1125.8,698.2a2.3,2.3,0,0,1,2.3-2.3,2.3,2.3,0,0,1,2.3,2.3,2.4,2.4,0,0,1-2.3,2.3,2.3,2.3,0,0,1-2.3-2.3Z"/>
  <path class="a" d="M1125.8,665.9a2.3,2.3,0,0,1,2.3-2.3,2.3,2.3,0,1,1,0,4.5,2.2,2.2,0,0,1-2.3-2.2Z"/>
  <line class="a" x1="1125.8" y1="698.2" x2="1123.1" y2="698.1"/>
  <line class="a" x1="1118.9" y1="693.9" x2="1118.9" y2="670.2"/>
  <path class="a" d="M1118.9,693.9a4.2,4.2,0,0,0,4.2,4.2"/>
  <line class="a" x1="1123.1" y1="666" x2="1125.8" y2="665.9"/>
  <path class="a" d="M1123.1,666a4.2,4.2,0,0,0-4.2,4.2"/>
  <path class="a" d="M1104.4,698.2a2.3,2.3,0,1,1,4.5,0,2.3,2.3,0,1,1-4.5,0Z"/>
  <path class="a" d="M1104.4,665.9a2.3,2.3,0,1,1,4.5,0,2.2,2.2,0,0,1-2.2,2.2,2.2,2.2,0,0,1-2.3-2.2Z"/>
  <line class="a" x1="1104.4" y1="698.2" x2="1101.7" y2="698.1"/>
  <line class="a" x1="1097.5" y1="693.9" x2="1097.5" y2="670.2"/>
  <path class="a" d="M1097.5,693.9a4.2,4.2,0,0,0,4.2,4.2"/>
  <line class="a" x1="1101.7" y1="666" x2="1104.4" y2="665.9"/>
  <path class="a" d="M1101.7,666a4.2,4.2,0,0,0-4.2,4.2"/>
  <path class="a" d="M1083,698.2a2.3,2.3,0,1,1,4.5,0,2.3,2.3,0,1,1-4.5,0Z"/>
  <path class="a" d="M1083,665.9a2.3,2.3,0,1,1,4.5,0,2.2,2.2,0,0,1-2.2,2.2,2.2,2.2,0,0,1-2.3-2.2Z"/>
  <line class="a" x1="1083" y1="698.2" x2="1080.2" y2="698.1"/>
  <line class="a" x1="1076" y1="693.9" x2="1076" y2="670.2"/>
  <path class="a" d="M1076,693.9a4.2,4.2,0,0,0,4.2,4.2"/>
  <line class="a" x1="1080.2" y1="666" x2="1083" y2="665.9"/>
  <path class="a" d="M1080.2,666a4.2,4.2,0,0,0-4.2,4.2"/>
  <path class="a" d="M1061.6,698.2a2.3,2.3,0,1,1,4.5,0,2.3,2.3,0,1,1-4.5,0Z"/>
  <path class="a" d="M1061.6,665.9a2.3,2.3,0,1,1,2.2,2.2,2.2,2.2,0,0,1-2.2-2.2Z"/>
  <line class="a" x1="1061.6" y1="698.2" x2="1058.8" y2="698.1"/>
  <line class="a" x1="1054.6" y1="693.9" x2="1054.6" y2="670.2"/>
  <path class="a" d="M1054.6,693.9a4.2,4.2,0,0,0,4.2,4.2"/>
  <line class="a" x1="1058.8" y1="666" x2="1061.6" y2="665.9"/>
  <path class="a" d="M1058.8,666a4.2,4.2,0,0,0-4.2,4.2"/>
  <path class="a" d="M1040.1,698.2a2.3,2.3,0,0,1,2.3-2.3,2.3,2.3,0,0,1,2.3,2.3,2.3,2.3,0,0,1-2.3,2.3,2.4,2.4,0,0,1-2.3-2.3Z"/>
  <path class="a" d="M1040.1,665.9a2.3,2.3,0,0,1,2.3-2.3,2.3,2.3,0,1,1,0,4.5,2.3,2.3,0,0,1-2.3-2.2Z"/>
  <line class="a" x1="1040.1" y1="698.2" x2="1037.4" y2="698.1"/>
  <line class="a" x1="1033.2" y1="693.9" x2="1033.2" y2="670.2"/>
  <path class="a" d="M1033.2,693.9a4.2,4.2,0,0,0,4.2,4.2"/>
  <line class="a" x1="1037.4" y1="666" x2="1040.1" y2="665.9"/>
  <path class="a" d="M1037.4,666a4.2,4.2,0,0,0-4.2,4.2"/>
  <path class="a" d="M1018.7,698.2a2.3,2.3,0,0,1,2.3-2.3,2.3,2.3,0,0,1,2.3,2.3,2.4,2.4,0,0,1-2.3,2.3,2.3,2.3,0,0,1-2.3-2.3Z"/>
  <path class="a" d="M1018.7,665.9a2.3,2.3,0,0,1,2.3-2.3,2.3,2.3,0,1,1,0,4.5,2.2,2.2,0,0,1-2.3-2.2Z"/>
  <line class="a" x1="1018.7" y1="698.2" x2="1016" y2="698.1"/>
  <line class="a" x1="1011.8" y1="693.9" x2="1011.8" y2="670.2"/>
  <path class="a" d="M1011.8,693.9a4.2,4.2,0,0,0,4.2,4.2"/>
  <line class="a" x1="1016" y1="666" x2="1018.7" y2="665.9"/>
  <path class="a" d="M1016,666a4.2,4.2,0,0,0-4.2,4.2"/>
  <path class="a" d="M997.3,698.2a2.3,2.3,0,1,1,4.5,0,2.3,2.3,0,1,1-4.5,0Z"/>
  <path class="a" d="M997.3,665.9a2.3,2.3,0,1,1,4.5,0,2.2,2.2,0,0,1-2.2,2.2,2.2,2.2,0,0,1-2.3-2.2Z"/>
  <line class="a" x1="997.3" y1="698.2" x2="994.5" y2="698.1"/>
  <line class="a" x1="990.4" y1="693.9" x2="990.4" y2="670.2"/>
  <path class="a" d="M990.4,693.9a4.1,4.1,0,0,0,4.1,4.2"/>
  <line class="a" x1="994.5" y1="666" x2="997.3" y2="665.9"/>
  <path class="a" d="M994.5,666a4.1,4.1,0,0,0-4.1,4.2"/>
  <path class="a" d="M975.9,698.2a2.3,2.3,0,1,1,4.5,0,2.3,2.3,0,1,1-4.5,0Z"/>
  <path class="a" d="M975.9,665.9a2.3,2.3,0,1,1,2.2,2.2,2.2,2.2,0,0,1-2.2-2.2Z"/>
  <line class="a" x1="975.9" y1="698.2" x2="973.1" y2="698.1"/>
  <line class="a" x1="968.9" y1="693.9" x2="968.9" y2="670.2"/>
  <path class="a" d="M968.9,693.9a4.2,4.2,0,0,0,4.2,4.2"/>
  <line class="a" x1="973.1" y1="666" x2="975.9" y2="665.9"/>
  <path class="a" d="M973.1,666a4.2,4.2,0,0,0-4.2,4.2"/>
  <path class="a" d="M954.5,698.2a2.3,2.3,0,1,1,4.5,0,2.3,2.3,0,1,1-4.5,0Z"/>
  <path class="a" d="M954.5,665.9a2.3,2.3,0,1,1,2.2,2.2,2.2,2.2,0,0,1-2.2-2.2Z"/>
  <line class="a" x1="954.5" y1="698.2" x2="951.7" y2="698.1"/>
  <line class="a" x1="947.5" y1="693.9" x2="947.5" y2="670.2"/>
  <path class="a" d="M947.5,693.9a4.2,4.2,0,0,0,4.2,4.2"/>
  <line class="a" x1="951.7" y1="666" x2="954.5" y2="665.9"/>
  <path class="a" d="M951.7,666a4.2,4.2,0,0,0-4.2,4.2"/>
  <path class="a" d="M933,698.2a2.3,2.3,0,0,1,2.3-2.3,2.3,2.3,0,0,1,2.3,2.3,2.3,2.3,0,0,1-2.3,2.3,2.4,2.4,0,0,1-2.3-2.3Z"/>
  <path class="a" d="M933,665.9a2.3,2.3,0,0,1,2.3-2.3,2.3,2.3,0,1,1,0,4.5,2.3,2.3,0,0,1-2.3-2.2Z"/>
  <line class="a" x1="933" y1="698.2" x2="930.3" y2="698.1"/>
  <line class="a" x1="926.1" y1="693.9" x2="926.1" y2="670.2"/>
  <path class="a" d="M926.1,693.9a4.2,4.2,0,0,0,4.2,4.2"/>
  <line class="a" x1="930.3" y1="666" x2="933" y2="665.9"/>
  <path class="a" d="M930.3,666a4.2,4.2,0,0,0-4.2,4.2"/>
  <path class="a" d="M911.6,698.2a2.3,2.3,0,0,1,2.3-2.3,2.3,2.3,0,0,1,2.3,2.3,2.4,2.4,0,0,1-2.3,2.3,2.3,2.3,0,0,1-2.3-2.3Z"/>
  <path class="a" d="M911.6,665.9a2.3,2.3,0,0,1,2.3-2.3,2.3,2.3,0,1,1,0,4.5,2.2,2.2,0,0,1-2.3-2.2Z"/>
  <line class="a" x1="911.6" y1="698.2" x2="908.9" y2="698.1"/>
  <line class="a" x1="904.7" y1="693.9" x2="904.7" y2="670.2"/>
  <path class="a" d="M904.7,693.9a4.2,4.2,0,0,0,4.2,4.2"/>
  <line class="a" x1="908.9" y1="666" x2="911.6" y2="665.9"/>
  <path class="a" d="M908.9,666a4.2,4.2,0,0,0-4.2,4.2"/>
  <path class="a" d="M890.2,698.2a2.3,2.3,0,1,1,4.5,0,2.3,2.3,0,1,1-4.5,0Z"/>
  <path class="a" d="M890.2,665.9a2.3,2.3,0,1,1,4.5,0,2.2,2.2,0,0,1-2.2,2.2,2.2,2.2,0,0,1-2.3-2.2Z"/>
  <line class="a" x1="890.2" y1="698.2" x2="887.4" y2="698.1"/>
  <line class="a" x1="883.3" y1="693.9" x2="883.3" y2="670.2"/>
  <path class="a" d="M883.3,693.9a4.1,4.1,0,0,0,4.1,4.2"/>
  <line class="a" x1="887.4" y1="666" x2="890.2" y2="665.9"/>
  <path class="a" d="M887.4,666a4.1,4.1,0,0,0-4.1,4.2"/>
  <line class="a" x1="303.9" y1="712.1" x2="345.3" y2="712.1"/>
  <line class="a" x1="297.6" y1="724.5" x2="343.1" y2="712.3"/>
  <path class="a" d="M345.3,712.1l-2.2.2"/>
  <line class="a" x1="345.3" y1="712.1" x2="1283.4" y2="712.1"/>
  <line class="a" x1="1283.4" y1="712.1" x2="1283.4" y2="707.5"/>
  <path class="a" d="M1288.5,702.4a5.1,5.1,0,0,0-5.1,5.1"/>
  <line class="a" x1="1288.5" y1="702.4" x2="1306.6" y2="702.4"/>
  <path class="a" d="M1311.7,707.5a5.1,5.1,0,0,0-5.1-5.1"/>
  <line class="a" x1="1311.7" y1="707.5" x2="1311.7" y2="776.7"/>
  <path class="a" d="M1306.6,781.8a5.1,5.1,0,0,0,5.1-5.1"/>
  <line class="a" x1="1306.6" y1="781.8" x2="1288.5" y2="781.8"/>
  <path class="a" d="M1283.4,776.7a5.1,5.1,0,0,0,5.1,5.1"/>
  <line class="a" x1="1283.4" y1="776.7" x2="1283.4" y2="772.2"/>
  <path class="a" d="M343.1,771.9a7.8,7.8,0,0,0,2.2.3"/>
  <line class="a" x1="343.1" y1="771.9" x2="297.6" y2="759.7"/>
  <path class="a" d="M291.3,751.5a8.4,8.4,0,0,0,6.3,8.2"/>
  <line class="a" x1="291.3" y1="751.5" x2="291.3" y2="732.8"/>
  <path class="a" d="M297.6,724.5a8.5,8.5,0,0,0-6.3,8.3"/>
  <path class="a" d="M328.4,758.3a2.3,2.3,0,1,1,4.5,0,2.2,2.2,0,0,1-2.2,2.2,2.2,2.2,0,0,1-2.3-2.2Z"/>
  <path class="a" d="M328.4,725.9a2.2,2.2,0,0,1,2.3-2.2,2.2,2.2,0,0,1,2.2,2.2,2.3,2.3,0,1,1-4.5,0Z"/>
  <line class="a" x1="332.9" y1="758.2" x2="335.7" y2="758.2"/>
  <line class="a" x1="339.9" y1="753.9" x2="339.9" y2="730.3"/>
  <path class="a" d="M335.7,758.2a4.3,4.3,0,0,0,4.2-4.3"/>
  <line class="a" x1="335.7" y1="726" x2="332.9" y2="726"/>
  <path class="a" d="M339.9,730.3a4.4,4.4,0,0,0-4.2-4.3"/>
  <path class="a" d="M349.8,758.3a2.3,2.3,0,0,1,2.3-2.3,2.3,2.3,0,1,1,0,4.5,2.2,2.2,0,0,1-2.3-2.2Z"/>
  <path class="a" d="M349.8,725.9a2.2,2.2,0,0,1,2.3-2.2,2.3,2.3,0,1,1,0,4.5,2.3,2.3,0,0,1-2.3-2.3Z"/>
  <line class="a" x1="354.4" y1="758.2" x2="357.1" y2="758.2"/>
  <line class="a" x1="361.3" y1="753.9" x2="361.3" y2="730.3"/>
  <path class="a" d="M357.1,758.2a4.3,4.3,0,0,0,4.2-4.3"/>
  <line class="a" x1="357.1" y1="726" x2="354.4" y2="726"/>
  <path class="a" d="M361.3,730.3a4.4,4.4,0,0,0-4.2-4.3"/>
  <path class="a" d="M371.2,758.3a2.3,2.3,0,0,1,2.3-2.3,2.3,2.3,0,1,1,0,4.5,2.3,2.3,0,0,1-2.3-2.2Z"/>
  <path class="a" d="M371.2,725.9a2.3,2.3,0,0,1,2.3-2.2,2.3,2.3,0,1,1,0,4.5,2.3,2.3,0,0,1-2.3-2.3Z"/>
  <line class="a" x1="375.8" y1="758.2" x2="378.5" y2="758.2"/>
  <line class="a" x1="382.7" y1="753.9" x2="382.7" y2="730.3"/>
  <path class="a" d="M378.5,758.2a4.2,4.2,0,0,0,4.2-4.3"/>
  <line class="a" x1="378.5" y1="726" x2="375.8" y2="726"/>
  <path class="a" d="M382.7,730.3a4.3,4.3,0,0,0-4.2-4.3"/>
  <path class="a" d="M392.7,758.3a2.3,2.3,0,1,1,2.2,2.2,2.2,2.2,0,0,1-2.2-2.2Z"/>
  <path class="a" d="M392.7,725.9a2.2,2.2,0,0,1,2.2-2.2,2.3,2.3,0,1,1-2.2,2.2Z"/>
  <line class="a" x1="397.2" y1="758.2" x2="400" y2="758.2"/>
  <line class="a" x1="404.1" y1="753.9" x2="404.1" y2="730.3"/>
  <path class="a" d="M400,758.2a4.2,4.2,0,0,0,4.1-4.3"/>
  <line class="a" x1="400" y1="726" x2="397.2" y2="726"/>
  <path class="a" d="M404.1,730.3A4.3,4.3,0,0,0,400,726"/>
  <path class="a" d="M414.1,758.3a2.3,2.3,0,1,1,4.5,0,2.2,2.2,0,0,1-2.2,2.2,2.2,2.2,0,0,1-2.3-2.2Z"/>
  <path class="a" d="M414.1,725.9a2.2,2.2,0,0,1,2.3-2.2,2.2,2.2,0,0,1,2.2,2.2,2.3,2.3,0,1,1-4.5,0Z"/>
  <line class="a" x1="418.6" y1="758.2" x2="421.4" y2="758.2"/>
  <line class="a" x1="425.6" y1="753.9" x2="425.6" y2="730.3"/>
  <path class="a" d="M421.4,758.2a4.3,4.3,0,0,0,4.2-4.3"/>
  <line class="a" x1="421.4" y1="726" x2="418.6" y2="726"/>
  <path class="a" d="M425.6,730.3a4.4,4.4,0,0,0-4.2-4.3"/>
  <path class="a" d="M435.5,758.3a2.3,2.3,0,1,1,4.5,0,2.2,2.2,0,0,1-2.2,2.2,2.2,2.2,0,0,1-2.3-2.2Z"/>
  <path class="a" d="M435.5,725.9a2.2,2.2,0,0,1,2.3-2.2,2.2,2.2,0,0,1,2.2,2.2,2.3,2.3,0,1,1-4.5,0Z"/>
  <line class="a" x1="440" y1="758.2" x2="442.8" y2="758.2"/>
  <line class="a" x1="447" y1="753.9" x2="447" y2="730.3"/>
  <path class="a" d="M442.8,758.2a4.3,4.3,0,0,0,4.2-4.3"/>
  <line class="a" x1="442.8" y1="726" x2="440" y2="726"/>
  <path class="a" d="M447,730.3a4.4,4.4,0,0,0-4.2-4.3"/>
  <path class="a" d="M456.9,758.3a2.3,2.3,0,0,1,2.3-2.3,2.3,2.3,0,1,1,0,4.5,2.2,2.2,0,0,1-2.3-2.2Z"/>
  <path class="a" d="M456.9,725.9a2.2,2.2,0,0,1,2.3-2.2,2.3,2.3,0,1,1,0,4.5,2.3,2.3,0,0,1-2.3-2.3Z"/>
  <line class="a" x1="461.5" y1="758.2" x2="464.2" y2="758.2"/>
  <line class="a" x1="468.4" y1="753.9" x2="468.4" y2="730.3"/>
  <path class="a" d="M464.2,758.2a4.3,4.3,0,0,0,4.2-4.3"/>
  <line class="a" x1="464.2" y1="726" x2="461.5" y2="726"/>
  <path class="a" d="M468.4,730.3a4.4,4.4,0,0,0-4.2-4.3"/>
  <path class="a" d="M478.3,758.3a2.3,2.3,0,0,1,2.3-2.3,2.3,2.3,0,1,1,0,4.5,2.3,2.3,0,0,1-2.3-2.2Z"/>
  <path class="a" d="M478.3,725.9a2.3,2.3,0,0,1,2.3-2.2,2.3,2.3,0,1,1,0,4.5,2.3,2.3,0,0,1-2.3-2.3Z"/>
  <line class="a" x1="482.9" y1="758.2" x2="485.6" y2="758.2"/>
  <line class="a" x1="489.8" y1="753.9" x2="489.8" y2="730.3"/>
  <path class="a" d="M485.6,758.2a4.2,4.2,0,0,0,4.2-4.3"/>
  <line class="a" x1="485.6" y1="726" x2="482.9" y2="726"/>
  <path class="a" d="M489.8,730.3a4.3,4.3,0,0,0-4.2-4.3"/>
  <path class="a" d="M499.8,758.3a2.3,2.3,0,1,1,2.2,2.2,2.2,2.2,0,0,1-2.2-2.2Z"/>
  <path class="a" d="M499.8,725.9a2.2,2.2,0,0,1,2.2-2.2,2.3,2.3,0,1,1-2.2,2.2Z"/>
  <line class="a" x1="504.3" y1="758.2" x2="507.1" y2="758.2"/>
  <line class="a" x1="511.2" y1="753.9" x2="511.2" y2="730.3"/>
  <path class="a" d="M507.1,758.2a4.2,4.2,0,0,0,4.1-4.3"/>
  <line class="a" x1="507.1" y1="726" x2="504.3" y2="726"/>
  <path class="a" d="M511.2,730.3a4.3,4.3,0,0,0-4.1-4.3"/>
  <path class="a" d="M521.2,758.3a2.3,2.3,0,1,1,4.5,0,2.2,2.2,0,0,1-2.2,2.2,2.2,2.2,0,0,1-2.3-2.2Z"/>
  <path class="a" d="M521.2,725.9a2.2,2.2,0,0,1,2.3-2.2,2.2,2.2,0,0,1,2.2,2.2,2.3,2.3,0,1,1-4.5,0Z"/>
  <line class="a" x1="525.7" y1="758.2" x2="528.5" y2="758.2"/>
  <line class="a" x1="532.7" y1="753.9" x2="532.7" y2="730.3"/>
  <path class="a" d="M528.5,758.2a4.3,4.3,0,0,0,4.2-4.3"/>
  <line class="a" x1="528.5" y1="726" x2="525.7" y2="726"/>
  <path class="a" d="M532.7,730.3a4.4,4.4,0,0,0-4.2-4.3"/>
  <path class="a" d="M542.6,758.3a2.3,2.3,0,1,1,4.5,0,2.2,2.2,0,0,1-2.2,2.2,2.2,2.2,0,0,1-2.3-2.2Z"/>
  <path class="a" d="M542.6,725.9a2.2,2.2,0,0,1,2.3-2.2,2.2,2.2,0,0,1,2.2,2.2,2.3,2.3,0,1,1-4.5,0Z"/>
  <line class="a" x1="547.1" y1="758.2" x2="549.9" y2="758.2"/>
  <line class="a" x1="554.1" y1="753.9" x2="554.1" y2="730.3"/>
  <path class="a" d="M549.9,758.2a4.3,4.3,0,0,0,4.2-4.3"/>
  <line class="a" x1="549.9" y1="726" x2="547.1" y2="726"/>
  <path class="a" d="M554.1,730.3a4.4,4.4,0,0,0-4.2-4.3"/>
  <path class="a" d="M564,758.3a2.3,2.3,0,1,1,2.3,2.2,2.3,2.3,0,0,1-2.3-2.2Z"/>
  <path class="a" d="M564,725.9a2.3,2.3,0,1,1,2.3,2.3,2.2,2.2,0,0,1-2.3-2.3Z"/>
  <line class="a" x1="568.6" y1="758.2" x2="571.3" y2="758.2"/>
  <line class="a" x1="575.5" y1="753.9" x2="575.5" y2="730.3"/>
  <path class="a" d="M571.3,758.2a4.3,4.3,0,0,0,4.2-4.3"/>
  <line class="a" x1="571.3" y1="726" x2="568.6" y2="726"/>
  <path class="a" d="M575.5,730.3a4.4,4.4,0,0,0-4.2-4.3"/>
  <path class="a" d="M585.5,758.3a2.3,2.3,0,1,1,2.2,2.2,2.2,2.2,0,0,1-2.2-2.2Z"/>
  <path class="a" d="M585.5,725.9a2.2,2.2,0,0,1,2.2-2.2,2.3,2.3,0,1,1-2.2,2.2Z"/>
  <line class="a" x1="590" y1="758.2" x2="592.7" y2="758.2"/>
  <line class="a" x1="596.9" y1="753.9" x2="596.9" y2="730.3"/>
  <path class="a" d="M592.7,758.2a4.2,4.2,0,0,0,4.2-4.3"/>
  <line class="a" x1="592.7" y1="726" x2="590" y2="726"/>
  <path class="a" d="M596.9,730.3a4.3,4.3,0,0,0-4.2-4.3"/>
  <path class="a" d="M606.9,758.3a2.3,2.3,0,1,1,2.2,2.2,2.2,2.2,0,0,1-2.2-2.2Z"/>
  <path class="a" d="M606.9,725.9a2.2,2.2,0,0,1,2.2-2.2,2.3,2.3,0,1,1-2.2,2.2Z"/>
  <line class="a" x1="611.4" y1="758.2" x2="614.2" y2="758.2"/>
  <line class="a" x1="618.4" y1="753.9" x2="618.4" y2="730.3"/>
  <path class="a" d="M614.2,758.2a4.3,4.3,0,0,0,4.2-4.3"/>
  <line class="a" x1="614.2" y1="726" x2="611.4" y2="726"/>
  <path class="a" d="M618.4,730.3a4.4,4.4,0,0,0-4.2-4.3"/>
  <path class="a" d="M628.3,758.3a2.3,2.3,0,1,1,4.5,0,2.2,2.2,0,0,1-2.2,2.2,2.2,2.2,0,0,1-2.3-2.2Z"/>
  <path class="a" d="M628.3,725.9a2.2,2.2,0,0,1,2.3-2.2,2.2,2.2,0,0,1,2.2,2.2,2.3,2.3,0,1,1-4.5,0Z"/>
  <line class="a" x1="632.8" y1="758.2" x2="635.6" y2="758.2"/>
  <line class="a" x1="639.8" y1="753.9" x2="639.8" y2="730.3"/>
  <path class="a" d="M635.6,758.2a4.3,4.3,0,0,0,4.2-4.3"/>
  <line class="a" x1="635.6" y1="726" x2="632.8" y2="726"/>
  <path class="a" d="M639.8,730.3a4.4,4.4,0,0,0-4.2-4.3"/>
  <path class="a" d="M649.7,758.3A2.3,2.3,0,0,1,652,756a2.3,2.3,0,1,1,0,4.5,2.2,2.2,0,0,1-2.3-2.2Z"/>
  <path class="a" d="M649.7,725.9a2.2,2.2,0,0,1,2.3-2.2,2.3,2.3,0,1,1,0,4.5,2.3,2.3,0,0,1-2.3-2.3Z"/>
  <line class="a" x1="654.3" y1="758.2" x2="657" y2="758.2"/>
  <line class="a" x1="661.2" y1="753.9" x2="661.2" y2="730.3"/>
  <path class="a" d="M657,758.2a4.3,4.3,0,0,0,4.2-4.3"/>
  <line class="a" x1="657" y1="726" x2="654.3" y2="726"/>
  <path class="a" d="M661.2,730.3A4.4,4.4,0,0,0,657,726"/>
  <path class="a" d="M671.1,758.3a2.3,2.3,0,0,1,2.3-2.3,2.3,2.3,0,1,1,0,4.5,2.3,2.3,0,0,1-2.3-2.2Z"/>
  <path class="a" d="M671.1,725.9a2.3,2.3,0,0,1,2.3-2.2,2.3,2.3,0,1,1,0,4.5,2.3,2.3,0,0,1-2.3-2.3Z"/>
  <line class="a" x1="675.7" y1="758.2" x2="678.4" y2="758.2"/>
  <line class="a" x1="682.6" y1="753.9" x2="682.6" y2="730.3"/>
  <path class="a" d="M678.4,758.2a4.2,4.2,0,0,0,4.2-4.3"/>
  <line class="a" x1="678.4" y1="726" x2="675.7" y2="726"/>
  <path class="a" d="M682.6,730.3a4.3,4.3,0,0,0-4.2-4.3"/>
  <path class="a" d="M692.6,758.3a2.3,2.3,0,1,1,2.2,2.2,2.2,2.2,0,0,1-2.2-2.2Z"/>
  <path class="a" d="M692.6,725.9a2.2,2.2,0,0,1,2.2-2.2,2.3,2.3,0,1,1-2.2,2.2Z"/>
  <line class="a" x1="697.1" y1="758.2" x2="699.9" y2="758.2"/>
  <line class="a" x1="704" y1="753.9" x2="704" y2="730.3"/>
  <path class="a" d="M699.9,758.2a4.2,4.2,0,0,0,4.1-4.3"/>
  <line class="a" x1="699.9" y1="726" x2="697.1" y2="726"/>
  <path class="a" d="M704,730.3a4.3,4.3,0,0,0-4.1-4.3"/>
  <line class="a" x1="1283.4" y1="772.2" x2="1242" y2="772.1"/>
  <line class="a" x1="1289.7" y1="784.6" x2="1244.2" y2="772.4"/>
  <path class="a" d="M1244.2,772.4a7.8,7.8,0,0,0-2.2-.3"/>
  <line class="a" x1="1242" y1="772.1" x2="303.9" y2="772.1"/>
  <line class="a" x1="303.9" y1="772.1" x2="303.9" y2="767.6"/>
  <path class="a" d="M303.9,767.6a5.1,5.1,0,0,0-5.1-5.1"/>
  <line class="a" x1="298.8" y1="762.5" x2="280.7" y2="762.5"/>
  <path class="a" d="M280.7,762.5a5.1,5.1,0,0,0-5.1,5.1"/>
  <path class="a" d="M275.6,836.7a5,5,0,0,0,5.1,5.1"/>
  <line class="a" x1="280.7" y1="841.8" x2="298.8" y2="841.8"/>
  <path class="a" d="M298.8,841.8a5.1,5.1,0,0,0,5.1-5.1"/>
  <line class="a" x1="303.9" y1="836.7" x2="303.9" y2="832.2"/>
  <path class="a" d="M1242.1,832.2a7.6,7.6,0,0,0,2.1-.3"/>
  <line class="a" x1="1244.2" y1="831.9" x2="1289.7" y2="819.7"/>
  <path class="a" d="M1289.7,819.7a8.5,8.5,0,0,0,6.3-8.2"/>
  <line class="a" x1="1296" y1="811.5" x2="1296" y2="792.8"/>
  <path class="a" d="M1296,792.8a8.6,8.6,0,0,0-6.3-8.2"/>
  <path class="a" d="M1254.4,818.3a2.2,2.2,0,0,1,2.2-2.2,2.3,2.3,0,1,1-2.2,2.2Z"/>
  <path class="a" d="M1254.4,786a2.3,2.3,0,1,1,4.5,0,2.3,2.3,0,1,1-4.5,0Z"/>
  <line class="a" x1="1254.4" y1="818.3" x2="1251.6" y2="818.2"/>
  <line class="a" x1="1247.4" y1="814" x2="1247.4" y2="790.3"/>
  <path class="a" d="M1247.4,814a4.2,4.2,0,0,0,4.2,4.2"/>
  <line class="a" x1="1251.6" y1="786.1" x2="1254.4" y2="786"/>
  <path class="a" d="M1251.6,786.1a4.2,4.2,0,0,0-4.2,4.2"/>
  <path class="a" d="M1232.9,818.3a2.3,2.3,0,0,1,2.3-2.2,2.3,2.3,0,1,1,0,4.5,2.3,2.3,0,0,1-2.3-2.3Z"/>
  <path class="a" d="M1232.9,786a2.4,2.4,0,0,1,2.3-2.3,2.3,2.3,0,0,1,2.3,2.3,2.3,2.3,0,0,1-2.3,2.3,2.3,2.3,0,0,1-2.3-2.3Z"/>
  <line class="a" x1="1232.9" y1="818.3" x2="1230.2" y2="818.2"/>
  <line class="a" x1="1226" y1="814" x2="1226" y2="790.3"/>
  <path class="a" d="M1226,814a4.2,4.2,0,0,0,4.2,4.2"/>
  <line class="a" x1="1230.2" y1="786.1" x2="1232.9" y2="786"/>
  <path class="a" d="M1230.2,786.1a4.2,4.2,0,0,0-4.2,4.2"/>
  <path class="a" d="M1211.5,818.3a2.2,2.2,0,0,1,2.3-2.2,2.3,2.3,0,1,1,0,4.5,2.3,2.3,0,0,1-2.3-2.3Z"/>
  <path class="a" d="M1211.5,786a2.3,2.3,0,0,1,2.3-2.3,2.4,2.4,0,0,1,2.3,2.3,2.3,2.3,0,0,1-2.3,2.3,2.3,2.3,0,0,1-2.3-2.3Z"/>
  <line class="a" x1="1211.5" y1="818.3" x2="1208.8" y2="818.2"/>
  <line class="a" x1="1204.6" y1="814" x2="1204.6" y2="790.3"/>
  <path class="a" d="M1204.6,814a4.2,4.2,0,0,0,4.2,4.2"/>
  <line class="a" x1="1208.8" y1="786.1" x2="1211.5" y2="786"/>
  <path class="a" d="M1208.8,786.1a4.2,4.2,0,0,0-4.2,4.2"/>
  <path class="a" d="M1190.1,818.3a2.2,2.2,0,0,1,2.3-2.2,2.2,2.2,0,0,1,2.2,2.2,2.3,2.3,0,1,1-4.5,0Z"/>
  <path class="a" d="M1190.1,786a2.3,2.3,0,1,1,4.5,0,2.3,2.3,0,1,1-4.5,0Z"/>
  <line class="a" x1="1190.1" y1="818.3" x2="1187.3" y2="818.2"/>
  <line class="a" x1="1183.2" y1="814" x2="1183.2" y2="790.3"/>
  <path class="a" d="M1183.2,814a4.1,4.1,0,0,0,4.1,4.2"/>
  <line class="a" x1="1187.3" y1="786.1" x2="1190.1" y2="786"/>
  <path class="a" d="M1187.3,786.1a4.1,4.1,0,0,0-4.1,4.2"/>
  <path class="a" d="M1168.7,818.3a2.2,2.2,0,0,1,2.2-2.2,2.3,2.3,0,1,1-2.2,2.2Z"/>
  <path class="a" d="M1168.7,786a2.3,2.3,0,1,1,4.5,0,2.3,2.3,0,1,1-4.5,0Z"/>
  <line class="a" x1="1168.7" y1="818.3" x2="1165.9" y2="818.2"/>
  <line class="a" x1="1161.7" y1="814" x2="1161.7" y2="790.3"/>
  <path class="a" d="M1161.7,814a4.2,4.2,0,0,0,4.2,4.2"/>
  <line class="a" x1="1165.9" y1="786.1" x2="1168.7" y2="786"/>
  <path class="a" d="M1165.9,786.1a4.2,4.2,0,0,0-4.2,4.2"/>
  <path class="a" d="M1147.3,818.3a2.2,2.2,0,0,1,2.2-2.2,2.3,2.3,0,1,1-2.2,2.2Z"/>
  <path class="a" d="M1147.3,786a2.3,2.3,0,1,1,4.5,0,2.3,2.3,0,1,1-4.5,0Z"/>
  <line class="a" x1="1147.3" y1="818.3" x2="1144.5" y2="818.2"/>
  <line class="a" x1="1140.3" y1="814" x2="1140.3" y2="790.3"/>
  <path class="a" d="M1140.3,814a4.2,4.2,0,0,0,4.2,4.2"/>
  <line class="a" x1="1144.5" y1="786.1" x2="1147.3" y2="786"/>
  <path class="a" d="M1144.5,786.1a4.2,4.2,0,0,0-4.2,4.2"/>
  <path class="a" d="M1125.8,818.3a2.2,2.2,0,0,1,2.3-2.2,2.3,2.3,0,1,1,0,4.5,2.3,2.3,0,0,1-2.3-2.3Z"/>
  <path class="a" d="M1125.8,786a2.3,2.3,0,0,1,2.3-2.3,2.4,2.4,0,0,1,2.3,2.3,2.3,2.3,0,0,1-2.3,2.3,2.3,2.3,0,0,1-2.3-2.3Z"/>
  <line class="a" x1="1125.8" y1="818.3" x2="1123.1" y2="818.2"/>
  <line class="a" x1="1118.9" y1="814" x2="1118.9" y2="790.3"/>
  <path class="a" d="M1118.9,814a4.2,4.2,0,0,0,4.2,4.2"/>
  <line class="a" x1="1123.1" y1="786.1" x2="1125.8" y2="786"/>
  <path class="a" d="M1123.1,786.1a4.2,4.2,0,0,0-4.2,4.2"/>
  <path class="a" d="M1104.4,818.3a2.2,2.2,0,0,1,2.3-2.2,2.2,2.2,0,0,1,2.2,2.2,2.3,2.3,0,1,1-4.5,0Z"/>
  <path class="a" d="M1104.4,786a2.3,2.3,0,1,1,4.5,0,2.3,2.3,0,1,1-4.5,0Z"/>
  <line class="a" x1="1104.4" y1="818.3" x2="1101.7" y2="818.2"/>
  <line class="a" x1="1097.5" y1="814" x2="1097.5" y2="790.3"/>
  <path class="a" d="M1097.5,814a4.2,4.2,0,0,0,4.2,4.2"/>
  <line class="a" x1="1101.7" y1="786.1" x2="1104.4" y2="786"/>
  <path class="a" d="M1101.7,786.1a4.2,4.2,0,0,0-4.2,4.2"/>
  <path class="a" d="M1083,818.3a2.2,2.2,0,0,1,2.3-2.2,2.2,2.2,0,0,1,2.2,2.2,2.3,2.3,0,1,1-4.5,0Z"/>
  <path class="a" d="M1083,786a2.3,2.3,0,1,1,4.5,0,2.3,2.3,0,1,1-4.5,0Z"/>
  <line class="a" x1="1083" y1="818.3" x2="1080.2" y2="818.2"/>
  <line class="a" x1="1076" y1="814" x2="1076" y2="790.3"/>
  <path class="a" d="M1076,814a4.2,4.2,0,0,0,4.2,4.2"/>
  <line class="a" x1="1080.2" y1="786.1" x2="1083" y2="786"/>
  <path class="a" d="M1080.2,786.1a4.2,4.2,0,0,0-4.2,4.2"/>
  <path class="a" d="M1061.6,818.3a2.2,2.2,0,0,1,2.2-2.2,2.3,2.3,0,1,1-2.2,2.2Z"/>
  <path class="a" d="M1061.6,786a2.3,2.3,0,1,1,4.5,0,2.3,2.3,0,1,1-4.5,0Z"/>
  <line class="a" x1="1061.6" y1="818.3" x2="1058.8" y2="818.2"/>
  <line class="a" x1="1054.6" y1="814" x2="1054.6" y2="790.3"/>
  <path class="a" d="M1054.6,814a4.2,4.2,0,0,0,4.2,4.2"/>
  <line class="a" x1="1058.8" y1="786.1" x2="1061.6" y2="786"/>
  <path class="a" d="M1058.8,786.1a4.2,4.2,0,0,0-4.2,4.2"/>
  <path class="a" d="M1040.1,818.3a2.3,2.3,0,0,1,2.3-2.2,2.3,2.3,0,1,1,0,4.5,2.3,2.3,0,0,1-2.3-2.3Z"/>
  <path class="a" d="M1040.1,786a2.4,2.4,0,0,1,2.3-2.3,2.3,2.3,0,0,1,2.3,2.3,2.3,2.3,0,0,1-2.3,2.3,2.3,2.3,0,0,1-2.3-2.3Z"/>
  <line class="a" x1="1040.1" y1="818.3" x2="1037.4" y2="818.2"/>
  <line class="a" x1="1033.2" y1="814" x2="1033.2" y2="790.3"/>
  <path class="a" d="M1033.2,814a4.2,4.2,0,0,0,4.2,4.2"/>
  <line class="a" x1="1037.4" y1="786.1" x2="1040.1" y2="786"/>
  <path class="a" d="M1037.4,786.1a4.2,4.2,0,0,0-4.2,4.2"/>
  <path class="a" d="M1018.7,818.3a2.2,2.2,0,0,1,2.3-2.2,2.3,2.3,0,1,1,0,4.5,2.3,2.3,0,0,1-2.3-2.3Z"/>
  <path class="a" d="M1018.7,786a2.3,2.3,0,0,1,2.3-2.3,2.4,2.4,0,0,1,2.3,2.3,2.3,2.3,0,0,1-2.3,2.3,2.3,2.3,0,0,1-2.3-2.3Z"/>
  <line class="a" x1="1018.7" y1="818.3" x2="1016" y2="818.2"/>
  <line class="a" x1="1011.8" y1="814" x2="1011.8" y2="790.3"/>
  <path class="a" d="M1011.8,814a4.2,4.2,0,0,0,4.2,4.2"/>
  <line class="a" x1="1016" y1="786.1" x2="1018.7" y2="786"/>
  <path class="a" d="M1016,786.1a4.2,4.2,0,0,0-4.2,4.2"/>
  <path class="a" d="M997.3,818.3a2.2,2.2,0,0,1,2.3-2.2,2.2,2.2,0,0,1,2.2,2.2,2.3,2.3,0,1,1-4.5,0Z"/>
  <path class="a" d="M997.3,786a2.3,2.3,0,1,1,4.5,0,2.3,2.3,0,1,1-4.5,0Z"/>
  <line class="a" x1="997.3" y1="818.3" x2="994.5" y2="818.2"/>
  <line class="a" x1="990.4" y1="814" x2="990.4" y2="790.3"/>
  <path class="a" d="M990.4,814a4.1,4.1,0,0,0,4.1,4.2"/>
  <line class="a" x1="994.5" y1="786.1" x2="997.3" y2="786"/>
  <path class="a" d="M994.5,786.1a4.1,4.1,0,0,0-4.1,4.2"/>
  <path class="a" d="M975.9,818.3a2.2,2.2,0,0,1,2.2-2.2,2.3,2.3,0,1,1-2.2,2.2Z"/>
  <path class="a" d="M975.9,786a2.3,2.3,0,1,1,4.5,0,2.3,2.3,0,1,1-4.5,0Z"/>
  <line class="a" x1="975.9" y1="818.3" x2="973.1" y2="818.2"/>
  <line class="a" x1="968.9" y1="814" x2="968.9" y2="790.3"/>
  <path class="a" d="M968.9,814a4.2,4.2,0,0,0,4.2,4.2"/>
  <line class="a" x1="973.1" y1="786.1" x2="975.9" y2="786"/>
  <path class="a" d="M973.1,786.1a4.2,4.2,0,0,0-4.2,4.2"/>
  <path class="a" d="M954.5,818.3a2.2,2.2,0,0,1,2.2-2.2,2.3,2.3,0,1,1-2.2,2.2Z"/>
  <path class="a" d="M954.5,786a2.3,2.3,0,1,1,4.5,0,2.3,2.3,0,1,1-4.5,0Z"/>
  <line class="a" x1="954.5" y1="818.3" x2="951.7" y2="818.2"/>
  <line class="a" x1="947.5" y1="814" x2="947.5" y2="790.3"/>
  <path class="a" d="M947.5,814a4.2,4.2,0,0,0,4.2,4.2"/>
  <line class="a" x1="951.7" y1="786.1" x2="954.5" y2="786"/>
  <path class="a" d="M951.7,786.1a4.2,4.2,0,0,0-4.2,4.2"/>
  <path class="a" d="M933,818.3a2.3,2.3,0,0,1,2.3-2.2,2.3,2.3,0,1,1,0,4.5,2.3,2.3,0,0,1-2.3-2.3Z"/>
  <path class="a" d="M933,786a2.4,2.4,0,0,1,2.3-2.3,2.3,2.3,0,0,1,2.3,2.3,2.3,2.3,0,0,1-2.3,2.3A2.3,2.3,0,0,1,933,786Z"/>
  <line class="a" x1="933" y1="818.3" x2="930.3" y2="818.2"/>
  <line class="a" x1="926.1" y1="814" x2="926.1" y2="790.3"/>
  <path class="a" d="M926.1,814a4.2,4.2,0,0,0,4.2,4.2"/>
  <line class="a" x1="930.3" y1="786.1" x2="933" y2="786"/>
  <path class="a" d="M930.3,786.1a4.2,4.2,0,0,0-4.2,4.2"/>
  <path class="a" d="M911.6,818.3a2.2,2.2,0,0,1,2.3-2.2,2.3,2.3,0,1,1,0,4.5,2.3,2.3,0,0,1-2.3-2.3Z"/>
  <path class="a" d="M911.6,786a2.3,2.3,0,0,1,2.3-2.3,2.4,2.4,0,0,1,2.3,2.3,2.3,2.3,0,0,1-2.3,2.3,2.3,2.3,0,0,1-2.3-2.3Z"/>
  <line class="a" x1="911.6" y1="818.3" x2="908.9" y2="818.2"/>
  <line class="a" x1="904.7" y1="814" x2="904.7" y2="790.3"/>
  <path class="a" d="M904.7,814a4.2,4.2,0,0,0,4.2,4.2"/>
  <line class="a" x1="908.9" y1="786.1" x2="911.6" y2="786"/>
  <path class="a" d="M908.9,786.1a4.2,4.2,0,0,0-4.2,4.2"/>
  <path class="a" d="M890.2,818.3a2.2,2.2,0,0,1,2.3-2.2,2.2,2.2,0,0,1,2.2,2.2,2.3,2.3,0,1,1-4.5,0Z"/>
  <path class="a" d="M890.2,786a2.3,2.3,0,1,1,4.5,0,2.3,2.3,0,1,1-4.5,0Z"/>
  <line class="a" x1="890.2" y1="818.3" x2="887.4" y2="818.2"/>
  <line class="a" x1="883.3" y1="814" x2="883.3" y2="790.3"/>
  <path class="a" d="M883.3,814a4.1,4.1,0,0,0,4.1,4.2"/>
  <line class="a" x1="887.4" y1="786.1" x2="890.2" y2="786"/>
  <path class="a" d="M887.4,786.1a4.1,4.1,0,0,0-4.1,4.2"/>
  <line class="a" x1="303.9" y1="832.2" x2="345.3" y2="832.2"/>
  <line class="a" x1="1242.1" y1="832.2" x2="345.3" y2="832.2"/>
  <line class="a" x1="275.6" y1="836.7" x2="275.6" y2="767.6"/>
  <line class="a" x1="275.6" y1="716.6" x2="275.6" y2="647.4"/>
  <line class="a" x1="275.6" y1="596.5" x2="275.6" y2="527.3"/>
  <path class="a" d="M283.8,433.1a14.3,14.3,0,0,0-14.2,14.2"/>
  <path class="a" d="M269.6,504a14.3,14.3,0,0,0,14.2,14.2"/>
  <line class="a" x1="283.8" y1="518.2" x2="1389.3" y2="518.2"/>
  <path class="a" d="M1389.3,518.2a14.3,14.3,0,0,0,14.2-14.2"/>
  <line class="a" x1="1403.5" y1="504" x2="1403.5" y2="447.3"/>
  <path class="a" d="M1403.5,447.3a14.3,14.3,0,0,0-14.2-14.2"/>
  <path class="a" d="M1242.1,451.8a2.6,2.6,0,0,0-2.6,2.6"/>
  <path class="a" d="M1239.5,454.4a2.5,2.5,0,0,0,2.6,2.5"/>
  <line class="a" x1="1242.1" y1="456.9" x2="1292.8" y2="456.9"/>
  <path class="a" d="M1292.8,456.9a2.5,2.5,0,0,0,2.5-2.5"/>
  <path class="a" d="M1295.3,454.4a2.6,2.6,0,0,0-2.5-2.6"/>
  <line class="a" x1="1292.8" y1="451.8" x2="1242.1" y2="451.8"/>
  <path class="a" d="M380.3,451.8a2.6,2.6,0,0,0-2.5,2.6"/>
  <path class="a" d="M377.8,454.4a2.5,2.5,0,0,0,2.5,2.5"/>
  <line class="a" x1="380.3" y1="456.9" x2="431.1" y2="456.9"/>
  <path class="a" d="M431.1,456.9a2.5,2.5,0,0,0,2.5-2.5"/>
  <path class="a" d="M433.6,454.4a2.6,2.6,0,0,0-2.5-2.6"/>
  <line class="a" x1="431.1" y1="451.8" x2="380.3" y2="451.8"/>
  <path class="a" d="M380.3,494.4a2.5,2.5,0,0,0-2.5,2.5"/>
  <path class="a" d="M377.8,496.9a2.6,2.6,0,0,0,2.5,2.6"/>
  <line class="a" x1="380.3" y1="499.5" x2="431.1" y2="499.5"/>
  <path class="a" d="M431.1,499.5a2.6,2.6,0,0,0,2.5-2.6"/>
  <path class="a" d="M433.6,496.9a2.5,2.5,0,0,0-2.5-2.5"/>
  <line class="a" x1="431.1" y1="494.4" x2="380.3" y2="494.4"/>
  <path class="a" d="M1242.1,494.4a2.5,2.5,0,0,0-2.6,2.5"/>
  <path class="a" d="M1239.5,496.9a2.6,2.6,0,0,0,2.6,2.6"/>
  <line class="a" x1="1242.1" y1="499.5" x2="1292.8" y2="499.5"/>
  <path class="a" d="M1292.8,499.5a2.6,2.6,0,0,0,2.5-2.6"/>
  <path class="a" d="M1295.3,496.9a2.5,2.5,0,0,0-2.5-2.5"/>
  <line class="a" x1="1292.8" y1="494.4" x2="1242.1" y2="494.4"/>
  <line class="a" x1="331.7" y1="448" x2="331.7" y2="503.3"/>
  <path class="a" d="M326.6,503.3a2.6,2.6,0,0,0,5.1,0"/>
  <line class="a" x1="326.6" y1="503.3" x2="326.6" y2="448"/>
  <path class="a" d="M331.7,448a2.6,2.6,0,0,0-5.1,0"/>
  <line class="a" x1="289.2" y1="448" x2="289.2" y2="503.3"/>
  <path class="a" d="M284.1,503.3a2.5,2.5,0,0,0,2.5,2.5,2.6,2.6,0,0,0,2.6-2.5"/>
  <line class="a" x1="284.1" y1="503.3" x2="284.1" y2="448"/>
  <path class="a" d="M289.2,448a2.6,2.6,0,0,0-2.6-2.5,2.5,2.5,0,0,0-2.5,2.5"/>
  <path class="a" d="M1389,448a2.5,2.5,0,0,0-2.5-2.5,2.6,2.6,0,0,0-2.6,2.5"/>
  <line class="a" x1="1383.9" y1="448" x2="1383.9" y2="503.3"/>
  <path class="a" d="M1383.9,503.3a2.6,2.6,0,0,0,2.6,2.5,2.5,2.5,0,0,0,2.5-2.5"/>
  <line class="a" x1="1389" y1="503.3" x2="1389" y2="448"/>
  <line class="a" x1="1346.5" y1="448" x2="1346.5" y2="503.3"/>
  <path class="a" d="M1341.4,503.3a2.6,2.6,0,0,0,2.6,2.5,2.5,2.5,0,0,0,2.5-2.5"/>
  <line class="a" x1="1341.4" y1="503.3" x2="1341.4" y2="448"/>
  <path class="a" d="M1346.5,448a2.5,2.5,0,0,0-2.5-2.5,2.6,2.6,0,0,0-2.6,2.5"/>
  <path class="a" d="M519.1,492.7a8.5,8.5,0,0,0-8.5-8.5"/>
  <line class="a" x1="510.6" y1="484.2" x2="482.2" y2="484.2"/>
  <path class="a" d="M476.6,478.5a5.7,5.7,0,0,0,5.6,5.7"/>
  <line class="a" x1="476.6" y1="478.5" x2="476.6" y2="472.8"/>
  <path class="a" d="M482.2,467.2a5.6,5.6,0,0,0-5.6,5.6"/>
  <line class="a" x1="482.2" y1="467.2" x2="510.6" y2="467.2"/>
  <path class="a" d="M510.6,467.2a8.6,8.6,0,0,0,8.5-8.6"/>
  <path class="a" d="M745.9,492.7a7.8,7.8,0,0,0-7.1-8.5"/>
  <line class="a" x1="738.8" y1="484.2" x2="710.4" y2="484.2"/>
  <path class="a" d="M704.8,478.5a5.7,5.7,0,0,0,5.6,5.7"/>
  <line class="a" x1="704.8" y1="478.5" x2="704.8" y2="472.8"/>
  <path class="a" d="M710.4,467.2a5.6,5.6,0,0,0-5.6,5.6"/>
  <line class="a" x1="710.4" y1="467.2" x2="738.8" y2="467.2"/>
  <path class="a" d="M738.8,467.2a8.6,8.6,0,0,0,8.5-8.6"/>
  <path class="a" d="M927.3,458.7a8.5,8.5,0,0,0,8.5,8.5"/>
  <line class="a" x1="935.8" y1="467.2" x2="964.1" y2="467.2"/>
  <path class="a" d="M969.8,472.8a5.6,5.6,0,0,0-5.7-5.6"/>
  <line class="a" x1="969.8" y1="472.8" x2="969.8" y2="478.5"/>
  <path class="a" d="M964.1,484.2a5.7,5.7,0,0,0,5.7-5.7"/>
  <line class="a" x1="964.1" y1="484.2" x2="935.8" y2="484.2"/>
  <path class="a" d="M935.8,484.2a8.5,8.5,0,0,0-8.5,8.5"/>
  <path class="a" d="M1154.1,458.6a8.5,8.5,0,0,0,8.5,8.5"/>
  <line class="a" x1="1162.6" y1="467.1" x2="1190.9" y2="467.1"/>
  <path class="a" d="M1196.6,472.7a5.7,5.7,0,0,0-5.7-5.6"/>
  <line class="a" x1="1196.6" y1="472.7" x2="1196.6" y2="478.4"/>
  <path class="a" d="M1190.9,484.1a5.8,5.8,0,0,0,5.7-5.7"/>
  <line class="a" x1="1190.9" y1="484.1" x2="1162.6" y2="484.1"/>
  <path class="a" d="M1162.6,484.1a8.5,8.5,0,0,0-8.5,8.5"/>
  <path class="a" d="M283.8,348.1a14.2,14.2,0,0,0-14.2,14.2"/>
  <path class="a" d="M269.6,419a14.2,14.2,0,0,0,14.2,14.1"/>
  <line class="a" x1="283.8" y1="433.1" x2="1389.3" y2="433.1"/>
  <path class="a" d="M1389.3,433.1a14.2,14.2,0,0,0,14.2-14.1"/>
  <line class="a" x1="1403.5" y1="419" x2="1403.5" y2="362.3"/>
  <path class="a" d="M1403.5,362.3a14.2,14.2,0,0,0-14.2-14.2"/>
  <path class="a" d="M1242.1,366.8a2.5,2.5,0,0,0-2.6,2.6"/>
  <path class="a" d="M1239.5,369.4a2.5,2.5,0,0,0,2.6,2.5"/>
  <line class="a" x1="1242.1" y1="371.9" x2="1292.8" y2="371.9"/>
  <path class="a" d="M1292.8,371.9a2.5,2.5,0,0,0,2.5-2.5"/>
  <path class="a" d="M1295.3,369.4a2.5,2.5,0,0,0-2.5-2.6"/>
  <line class="a" x1="1292.8" y1="366.8" x2="1242.1" y2="366.8"/>
  <path class="a" d="M380.3,366.8a2.5,2.5,0,0,0-2.5,2.6"/>
  <path class="a" d="M377.8,369.4a2.5,2.5,0,0,0,2.5,2.5"/>
  <line class="a" x1="380.3" y1="371.9" x2="431.1" y2="371.9"/>
  <path class="a" d="M431.1,371.9a2.5,2.5,0,0,0,2.5-2.5"/>
  <path class="a" d="M433.6,369.4a2.5,2.5,0,0,0-2.5-2.6"/>
  <line class="a" x1="431.1" y1="366.8" x2="380.3" y2="366.8"/>
  <path class="a" d="M380.3,409.3a2.6,2.6,0,0,0-2.5,2.6"/>
  <path class="a" d="M377.8,411.9a2.5,2.5,0,0,0,2.5,2.5"/>
  <line class="a" x1="380.3" y1="414.4" x2="431.1" y2="414.4"/>
  <path class="a" d="M431.1,414.4a2.5,2.5,0,0,0,2.5-2.5"/>
  <path class="a" d="M433.6,411.9a2.6,2.6,0,0,0-2.5-2.6"/>
  <line class="a" x1="431.1" y1="409.3" x2="380.3" y2="409.3"/>
  <path class="a" d="M1242.1,409.3a2.6,2.6,0,0,0-2.6,2.6"/>
  <path class="a" d="M1239.5,411.9a2.5,2.5,0,0,0,2.6,2.5"/>
  <line class="a" x1="1242.1" y1="414.4" x2="1292.8" y2="414.4"/>
  <path class="a" d="M1292.8,414.4a2.5,2.5,0,0,0,2.5-2.5"/>
  <path class="a" d="M1295.3,411.9a2.6,2.6,0,0,0-2.5-2.6"/>
  <line class="a" x1="1292.8" y1="409.3" x2="1242.1" y2="409.3"/>
  <line class="a" x1="331.7" y1="363" x2="331.7" y2="418.3"/>
  <path class="a" d="M326.6,418.3a2.6,2.6,0,0,0,5.1,0"/>
  <line class="a" x1="326.6" y1="418.3" x2="326.6" y2="363"/>
  <path class="a" d="M331.7,363a2.6,2.6,0,1,0-5.1,0"/>
  <line class="a" x1="289.2" y1="363" x2="289.2" y2="418.3"/>
  <path class="a" d="M284.1,418.3a2.5,2.5,0,0,0,2.5,2.5,2.6,2.6,0,0,0,2.6-2.5"/>
  <line class="a" x1="284.1" y1="418.3" x2="284.1" y2="363"/>
  <path class="a" d="M289.2,363a2.6,2.6,0,0,0-2.6-2.6,2.6,2.6,0,0,0-2.5,2.6"/>
  <path class="a" d="M1389,363a2.6,2.6,0,0,0-2.5-2.6,2.6,2.6,0,0,0-2.6,2.6"/>
  <line class="a" x1="1383.9" y1="363" x2="1383.9" y2="418.3"/>
  <path class="a" d="M1383.9,418.3a2.6,2.6,0,0,0,2.6,2.5,2.5,2.5,0,0,0,2.5-2.5"/>
  <line class="a" x1="1389" y1="418.3" x2="1389" y2="363"/>
  <line class="a" x1="1346.5" y1="363" x2="1346.5" y2="418.3"/>
  <path class="a" d="M1341.4,418.3a2.6,2.6,0,0,0,2.6,2.5,2.5,2.5,0,0,0,2.5-2.5"/>
  <line class="a" x1="1341.4" y1="418.3" x2="1341.4" y2="363"/>
  <path class="a" d="M1346.5,363a2.6,2.6,0,0,0-2.5-2.6,2.6,2.6,0,0,0-2.6,2.6"/>
  <path class="a" d="M519.1,407.6a8.5,8.5,0,0,0-8.5-8.5"/>
  <line class="a" x1="510.6" y1="399.1" x2="482.2" y2="399.1"/>
  <path class="a" d="M476.6,393.5a5.6,5.6,0,0,0,5.6,5.6"/>
  <line class="a" x1="476.6" y1="393.5" x2="476.6" y2="387.8"/>
  <path class="a" d="M482.2,382.1a5.7,5.7,0,0,0-5.6,5.7"/>
  <line class="a" x1="482.2" y1="382.1" x2="510.6" y2="382.1"/>
  <path class="a" d="M510.6,382.1a8.5,8.5,0,0,0,8.5-8.5"/>
  <path class="a" d="M745.9,407.6a7.8,7.8,0,0,0-7.1-8.5"/>
  <line class="a" x1="738.8" y1="399.1" x2="710.4" y2="399.1"/>
  <path class="a" d="M704.8,393.5a5.6,5.6,0,0,0,5.6,5.6"/>
  <line class="a" x1="704.8" y1="393.5" x2="704.8" y2="387.8"/>
  <path class="a" d="M710.4,382.1a5.7,5.7,0,0,0-5.6,5.7"/>
  <line class="a" x1="710.4" y1="382.1" x2="738.8" y2="382.1"/>
  <path class="a" d="M738.8,382.1a8.5,8.5,0,0,0,8.5-8.5"/>
  <path class="a" d="M927.3,373.6a8.5,8.5,0,0,0,8.5,8.5"/>
  <line class="a" x1="935.8" y1="382.1" x2="964.1" y2="382.1"/>
  <path class="a" d="M969.8,387.8a5.7,5.7,0,0,0-5.7-5.7"/>
  <line class="a" x1="969.8" y1="387.8" x2="969.8" y2="393.5"/>
  <path class="a" d="M964.1,399.1a5.6,5.6,0,0,0,5.7-5.6"/>
  <line class="a" x1="964.1" y1="399.1" x2="935.8" y2="399.1"/>
  <path class="a" d="M935.8,399.1a8.5,8.5,0,0,0-8.5,8.5"/>
  <path class="a" d="M1154.1,373.5a8.5,8.5,0,0,0,8.5,8.5"/>
  <line class="a" x1="1162.6" y1="382" x2="1190.9" y2="382"/>
  <path class="a" d="M1196.6,387.7a5.8,5.8,0,0,0-5.7-5.7"/>
  <line class="a" x1="1196.6" y1="387.7" x2="1196.6" y2="393.4"/>
  <path class="a" d="M1190.9,399a5.7,5.7,0,0,0,5.7-5.6"/>
  <line class="a" x1="1190.9" y1="399" x2="1162.6" y2="399"/>
  <path class="a" d="M1162.6,399a8.5,8.5,0,0,0-8.5,8.5"/>
  <path class="a" d="M283.8,263.1a14.2,14.2,0,0,0-14.2,14.1"/>
  <path class="a" d="M269.6,333.9a14.2,14.2,0,0,0,14.2,14.2"/>
  <line class="a" x1="283.8" y1="348.1" x2="1389.3" y2="348.1"/>
  <path class="a" d="M1389.3,348.1a14.2,14.2,0,0,0,14.2-14.2"/>
  <line class="a" x1="1403.5" y1="333.9" x2="1403.5" y2="277.2"/>
  <path class="a" d="M1403.5,277.2a14.2,14.2,0,0,0-14.2-14.1"/>
  <path class="a" d="M1242.1,281.8a2.5,2.5,0,0,0-2.6,2.5"/>
  <path class="a" d="M1239.5,284.3a2.6,2.6,0,0,0,2.6,2.6"/>
  <line class="a" x1="1242.1" y1="286.9" x2="1292.8" y2="286.9"/>
  <path class="a" d="M1292.8,286.9a2.6,2.6,0,0,0,2.5-2.6"/>
  <path class="a" d="M1295.3,284.3a2.5,2.5,0,0,0-2.5-2.5"/>
  <line class="a" x1="1292.8" y1="281.8" x2="1242.1" y2="281.8"/>
  <path class="a" d="M380.3,281.8a2.5,2.5,0,0,0-2.5,2.5"/>
  <path class="a" d="M377.8,284.3a2.6,2.6,0,0,0,2.5,2.6"/>
  <line class="a" x1="380.3" y1="286.9" x2="431.1" y2="286.9"/>
  <path class="a" d="M431.1,286.9a2.6,2.6,0,0,0,2.5-2.6"/>
  <path class="a" d="M433.6,284.3a2.5,2.5,0,0,0-2.5-2.5"/>
  <line class="a" x1="431.1" y1="281.8" x2="380.3" y2="281.8"/>
  <path class="a" d="M380.3,324.3a2.5,2.5,0,0,0-2.5,2.5"/>
  <path class="a" d="M377.8,326.8a2.6,2.6,0,0,0,2.5,2.6"/>
  <line class="a" x1="380.3" y1="329.4" x2="431.1" y2="329.4"/>
  <path class="a" d="M431.1,329.4a2.6,2.6,0,0,0,2.5-2.6"/>
  <path class="a" d="M433.6,326.8a2.5,2.5,0,0,0-2.5-2.5"/>
  <line class="a" x1="431.1" y1="324.3" x2="380.3" y2="324.3"/>
  <path class="a" d="M1242.1,324.3a2.5,2.5,0,0,0-2.6,2.5"/>
  <path class="a" d="M1239.5,326.8a2.6,2.6,0,0,0,2.6,2.6"/>
  <line class="a" x1="1242.1" y1="329.4" x2="1292.8" y2="329.4"/>
  <path class="a" d="M1292.8,329.4a2.6,2.6,0,0,0,2.5-2.6"/>
  <path class="a" d="M1295.3,326.8a2.5,2.5,0,0,0-2.5-2.5"/>
  <line class="a" x1="1292.8" y1="324.3" x2="1242.1" y2="324.3"/>
  <line class="a" x1="331.7" y1="277.9" x2="331.7" y2="333.2"/>
  <path class="a" d="M326.6,333.2a2.6,2.6,0,1,0,5.1,0"/>
  <line class="a" x1="326.6" y1="333.2" x2="326.6" y2="277.9"/>
  <path class="a" d="M331.7,277.9a2.6,2.6,0,0,0-5.1,0"/>
  <line class="a" x1="289.2" y1="277.9" x2="289.2" y2="333.2"/>
  <path class="a" d="M284.1,333.2a2.6,2.6,0,0,0,2.5,2.6,2.6,2.6,0,0,0,2.6-2.6"/>
  <line class="a" x1="284.1" y1="333.2" x2="284.1" y2="277.9"/>
  <path class="a" d="M289.2,277.9a2.6,2.6,0,0,0-2.6-2.5,2.5,2.5,0,0,0-2.5,2.5"/>
  <path class="a" d="M1389,277.9a2.5,2.5,0,0,0-2.5-2.5,2.6,2.6,0,0,0-2.6,2.5"/>
  <line class="a" x1="1383.9" y1="277.9" x2="1383.9" y2="333.2"/>
  <path class="a" d="M1383.9,333.2a2.6,2.6,0,0,0,2.6,2.6,2.6,2.6,0,0,0,2.5-2.6"/>
  <line class="a" x1="1389" y1="333.2" x2="1389" y2="277.9"/>
  <line class="a" x1="1346.5" y1="277.9" x2="1346.5" y2="333.2"/>
  <path class="a" d="M1341.4,333.2a2.6,2.6,0,0,0,2.6,2.6,2.6,2.6,0,0,0,2.5-2.6"/>
  <line class="a" x1="1341.4" y1="333.2" x2="1341.4" y2="277.9"/>
  <path class="a" d="M1346.5,277.9a2.5,2.5,0,0,0-2.5-2.5,2.6,2.6,0,0,0-2.6,2.5"/>
  <path class="a" d="M519.1,322.6a8.5,8.5,0,0,0-8.5-8.5"/>
  <line class="a" x1="510.6" y1="314.1" x2="482.2" y2="314.1"/>
  <path class="a" d="M476.6,308.4a5.7,5.7,0,0,0,5.6,5.7"/>
  <line class="a" x1="476.6" y1="308.4" x2="476.6" y2="302.7"/>
  <path class="a" d="M482.2,297.1a5.6,5.6,0,0,0-5.6,5.6"/>
  <line class="a" x1="482.2" y1="297.1" x2="510.6" y2="297.1"/>
  <path class="a" d="M510.6,297.1a8.5,8.5,0,0,0,8.5-8.5"/>
  <path class="a" d="M745.9,322.6a7.8,7.8,0,0,0-7.1-8.5"/>
  <line class="a" x1="738.8" y1="314.1" x2="710.4" y2="314.1"/>
  <path class="a" d="M704.8,308.4a5.7,5.7,0,0,0,5.6,5.7"/>
  <line class="a" x1="704.8" y1="308.4" x2="704.8" y2="302.7"/>
  <path class="a" d="M710.4,297.1a5.6,5.6,0,0,0-5.6,5.6"/>
  <line class="a" x1="710.4" y1="297.1" x2="738.8" y2="297.1"/>
  <path class="a" d="M738.8,297.1a8.5,8.5,0,0,0,8.5-8.5"/>
  <path class="a" d="M927.3,288.6a8.5,8.5,0,0,0,8.5,8.5"/>
  <line class="a" x1="935.8" y1="297.1" x2="964.1" y2="297.1"/>
  <path class="a" d="M969.8,302.8a5.6,5.6,0,0,0-5.7-5.7"/>
  <line class="a" x1="969.8" y1="302.8" x2="969.8" y2="308.4"/>
  <path class="a" d="M964.1,314.1a5.6,5.6,0,0,0,5.7-5.7"/>
  <line class="a" x1="964.1" y1="314.1" x2="935.8" y2="314.1"/>
  <path class="a" d="M935.8,314.1a8.5,8.5,0,0,0-8.5,8.5"/>
  <path class="a" d="M1154.1,288.5a8.5,8.5,0,0,0,8.5,8.5"/>
  <line class="a" x1="1162.6" y1="297" x2="1190.9" y2="297"/>
  <path class="a" d="M1196.6,302.7a5.7,5.7,0,0,0-5.7-5.7"/>
  <line class="a" x1="1196.6" y1="302.7" x2="1196.6" y2="308.3"/>
  <path class="a" d="M1190.9,314a5.7,5.7,0,0,0,5.7-5.7"/>
  <line class="a" x1="1190.9" y1="314" x2="1162.6" y2="314"/>
  <path class="a" d="M1162.6,314a8.5,8.5,0,0,0-8.5,8.5"/>
  <path class="a" d="M283.8,178a14.3,14.3,0,0,0-14.2,14.2"/>
  <path class="a" d="M269.6,248.9a14.3,14.3,0,0,0,14.2,14.2"/>
  <line class="a" x1="283.8" y1="263.1" x2="1389.3" y2="263.1"/>
  <path class="a" d="M1389.3,263.1a14.3,14.3,0,0,0,14.2-14.2"/>
  <line class="a" x1="1403.5" y1="248.9" x2="1403.5" y2="192.2"/>
  <path class="a" d="M1403.5,192.2a14.3,14.3,0,0,0-14.2-14.2"/>
  <path class="a" d="M1242.1,196.7a2.6,2.6,0,0,0-2.6,2.6"/>
  <path class="a" d="M1239.5,199.3a2.5,2.5,0,0,0,2.6,2.5"/>
  <line class="a" x1="1242.1" y1="201.8" x2="1292.8" y2="201.8"/>
  <path class="a" d="M1292.8,201.8a2.5,2.5,0,0,0,2.5-2.5"/>
  <path class="a" d="M1295.3,199.3a2.6,2.6,0,0,0-2.5-2.6"/>
  <line class="a" x1="1292.8" y1="196.7" x2="1242.1" y2="196.7"/>
  <path class="a" d="M380.3,196.7a2.6,2.6,0,0,0-2.5,2.6"/>
  <path class="a" d="M377.8,199.3a2.5,2.5,0,0,0,2.5,2.5"/>
  <line class="a" x1="380.3" y1="201.8" x2="431.1" y2="201.8"/>
  <path class="a" d="M431.1,201.8a2.5,2.5,0,0,0,2.5-2.5"/>
  <path class="a" d="M433.6,199.3a2.6,2.6,0,0,0-2.5-2.6"/>
  <line class="a" x1="431.1" y1="196.7" x2="380.3" y2="196.7"/>
  <path class="a" d="M380.3,239.2a2.6,2.6,0,0,0-2.5,2.6"/>
  <path class="a" d="M377.8,241.8a2.5,2.5,0,0,0,2.5,2.5"/>
  <line class="a" x1="380.3" y1="244.3" x2="431.1" y2="244.3"/>
  <path class="a" d="M431.1,244.3a2.5,2.5,0,0,0,2.5-2.5"/>
  <path class="a" d="M433.6,241.8a2.6,2.6,0,0,0-2.5-2.6"/>
  <line class="a" x1="431.1" y1="239.2" x2="380.3" y2="239.2"/>
  <path class="a" d="M1242.1,239.2a2.6,2.6,0,0,0-2.6,2.6"/>
  <path class="a" d="M1239.5,241.8a2.5,2.5,0,0,0,2.6,2.5"/>
  <line class="a" x1="1242.1" y1="244.3" x2="1292.8" y2="244.3"/>
  <path class="a" d="M1292.8,244.3a2.5,2.5,0,0,0,2.5-2.5"/>
  <path class="a" d="M1295.3,241.8a2.6,2.6,0,0,0-2.5-2.6"/>
  <line class="a" x1="1292.8" y1="239.2" x2="1242.1" y2="239.2"/>
  <line class="a" x1="331.7" y1="192.9" x2="331.7" y2="248.2"/>
  <path class="a" d="M326.6,248.2a2.6,2.6,0,0,0,5.1,0"/>
  <line class="a" x1="326.6" y1="248.2" x2="326.6" y2="192.9"/>
  <path class="a" d="M331.7,192.9a2.6,2.6,0,1,0-5.1,0"/>
  <line class="a" x1="289.2" y1="192.9" x2="289.2" y2="248.2"/>
  <path class="a" d="M284.1,248.2a2.5,2.5,0,0,0,2.5,2.5,2.6,2.6,0,0,0,2.6-2.5"/>
  <line class="a" x1="284.1" y1="248.2" x2="284.1" y2="192.9"/>
  <path class="a" d="M289.2,192.9a2.6,2.6,0,0,0-2.6-2.6,2.6,2.6,0,0,0-2.5,2.6"/>
  <path class="a" d="M1389,192.9a2.6,2.6,0,0,0-2.5-2.6,2.6,2.6,0,0,0-2.6,2.6"/>
  <line class="a" x1="1383.9" y1="192.9" x2="1383.9" y2="248.2"/>
  <path class="a" d="M1383.9,248.2a2.6,2.6,0,0,0,2.6,2.5,2.5,2.5,0,0,0,2.5-2.5"/>
  <line class="a" x1="1389" y1="248.2" x2="1389" y2="192.9"/>
  <line class="a" x1="1346.5" y1="192.9" x2="1346.5" y2="248.2"/>
  <path class="a" d="M1341.4,248.2a2.6,2.6,0,0,0,2.6,2.5,2.5,2.5,0,0,0,2.5-2.5"/>
  <line class="a" x1="1341.4" y1="248.2" x2="1341.4" y2="192.9"/>
  <path class="a" d="M1346.5,192.9a2.6,2.6,0,0,0-2.5-2.6,2.6,2.6,0,0,0-2.6,2.6"/>
  <path class="a" d="M519.1,237.5a8.5,8.5,0,0,0-8.5-8.5"/>
  <line class="a" x1="510.6" y1="229" x2="482.2" y2="229"/>
  <path class="a" d="M476.6,223.4a5.6,5.6,0,0,0,5.6,5.6"/>
  <line class="a" x1="476.6" y1="223.4" x2="476.6" y2="217.7"/>
  <path class="a" d="M482.2,212a5.7,5.7,0,0,0-5.6,5.7"/>
  <line class="a" x1="482.2" y1="212" x2="510.6" y2="212"/>
  <path class="a" d="M510.6,212a8.5,8.5,0,0,0,8.5-8.5"/>
  <path class="a" d="M745.9,237.5a7.8,7.8,0,0,0-7.1-8.5"/>
  <line class="a" x1="738.8" y1="229" x2="710.4" y2="229"/>
  <path class="a" d="M704.8,223.4a5.6,5.6,0,0,0,5.6,5.6"/>
  <line class="a" x1="704.8" y1="223.4" x2="704.8" y2="217.7"/>
  <path class="a" d="M710.4,212a5.7,5.7,0,0,0-5.6,5.7"/>
  <line class="a" x1="710.4" y1="212" x2="738.8" y2="212"/>
  <path class="a" d="M738.8,212a8.5,8.5,0,0,0,8.5-8.5"/>
  <path class="a" d="M927.3,203.5a8.5,8.5,0,0,0,8.5,8.5"/>
  <line class="a" x1="935.8" y1="212" x2="964.1" y2="212"/>
  <path class="a" d="M969.8,217.7a5.7,5.7,0,0,0-5.7-5.7"/>
  <line class="a" x1="969.8" y1="217.7" x2="969.8" y2="223.4"/>
  <path class="a" d="M964.1,229.1a5.7,5.7,0,0,0,5.7-5.7"/>
  <line class="a" x1="964.1" y1="229.1" x2="935.8" y2="229.1"/>
  <path class="a" d="M935.8,229.1a8.5,8.5,0,0,0-8.5,8.5"/>
  <path class="a" d="M1154.1,203.4a8.6,8.6,0,0,0,8.5,8.6"/>
  <line class="a" x1="1162.6" y1="212" x2="1190.9" y2="212"/>
  <path class="a" d="M1196.6,217.6a5.7,5.7,0,0,0-5.7-5.6"/>
  <line class="a" x1="1196.6" y1="217.6" x2="1196.6" y2="223.3"/>
  <path class="a" d="M1190.9,229a5.8,5.8,0,0,0,5.7-5.7"/>
  <line class="a" x1="1190.9" y1="229" x2="1162.6" y2="229"/>
  <path class="a" d="M1162.6,229a8.5,8.5,0,0,0-8.5,8.5"/>
  <path class="a" d="M283.8,93a14.2,14.2,0,0,0-14.2,14.2"/>
  <path class="a" d="M269.6,163.8A14.2,14.2,0,0,0,283.8,178"/>
  <line class="a" x1="283.8" y1="178" x2="1389.3" y2="178"/>
  <path class="a" d="M1389.3,178a14.2,14.2,0,0,0,14.2-14.2"/>
  <line class="a" x1="1403.5" y1="163.8" x2="1403.5" y2="107.2"/>
  <path class="a" d="M1403.5,107.2A14.2,14.2,0,0,0,1389.3,93"/>
  <path class="a" d="M1242.1,111.7a2.5,2.5,0,0,0-2.6,2.5"/>
  <path class="a" d="M1239.5,114.2a2.6,2.6,0,0,0,2.6,2.6"/>
  <line class="a" x1="1242.1" y1="116.8" x2="1292.8" y2="116.8"/>
  <path class="a" d="M1292.8,116.8a2.6,2.6,0,0,0,2.5-2.6"/>
  <path class="a" d="M1295.3,114.2a2.5,2.5,0,0,0-2.5-2.5"/>
  <line class="a" x1="1292.8" y1="111.7" x2="1242.1" y2="111.7"/>
  <path class="a" d="M380.3,111.7a2.5,2.5,0,0,0-2.5,2.5"/>
  <path class="a" d="M377.8,114.2a2.6,2.6,0,0,0,2.5,2.6"/>
  <line class="a" x1="380.3" y1="116.8" x2="431.1" y2="116.8"/>
  <path class="a" d="M431.1,116.8a2.6,2.6,0,0,0,2.5-2.6"/>
  <path class="a" d="M433.6,114.2a2.5,2.5,0,0,0-2.5-2.5"/>
  <line class="a" x1="431.1" y1="111.7" x2="380.3" y2="111.7"/>
  <path class="a" d="M380.3,154.2a2.5,2.5,0,0,0-2.5,2.6"/>
  <path class="a" d="M377.8,156.8a2.5,2.5,0,0,0,2.5,2.5"/>
  <line class="a" x1="380.3" y1="159.3" x2="431.1" y2="159.3"/>
  <path class="a" d="M431.1,159.3a2.5,2.5,0,0,0,2.5-2.5"/>
  <path class="a" d="M433.6,156.8a2.5,2.5,0,0,0-2.5-2.6"/>
  <line class="a" x1="431.1" y1="154.2" x2="380.3" y2="154.2"/>
  <path class="a" d="M1242.1,154.2a2.5,2.5,0,0,0-2.6,2.6"/>
  <path class="a" d="M1239.5,156.8a2.5,2.5,0,0,0,2.6,2.5"/>
  <line class="a" x1="1242.1" y1="159.3" x2="1292.8" y2="159.3"/>
  <path class="a" d="M1292.8,159.3a2.5,2.5,0,0,0,2.5-2.5"/>
  <path class="a" d="M1295.3,156.8a2.5,2.5,0,0,0-2.5-2.6"/>
  <line class="a" x1="1292.8" y1="154.2" x2="1242.1" y2="154.2"/>
  <line class="a" x1="331.7" y1="107.9" x2="331.7" y2="163.1"/>
  <path class="a" d="M326.6,163.1a2.6,2.6,0,1,0,5.1,0"/>
  <line class="a" x1="326.6" y1="163.1" x2="326.6" y2="107.9"/>
  <path class="a" d="M331.7,107.9a2.6,2.6,0,1,0-5.1,0"/>
  <line class="a" x1="289.2" y1="107.9" x2="289.2" y2="163.1"/>
  <path class="a" d="M284.1,163.1a2.6,2.6,0,0,0,2.5,2.6,2.6,2.6,0,0,0,2.6-2.6"/>
  <line class="a" x1="284.1" y1="163.1" x2="284.1" y2="107.9"/>
  <path class="a" d="M289.2,107.9a2.6,2.6,0,0,0-2.6-2.6,2.6,2.6,0,0,0-2.5,2.6"/>
  <path class="a" d="M1389,107.9a2.6,2.6,0,0,0-2.5-2.6,2.6,2.6,0,0,0-2.6,2.6"/>
  <line class="a" x1="1383.9" y1="107.9" x2="1383.9" y2="163.1"/>
  <path class="a" d="M1383.9,163.1a2.6,2.6,0,0,0,2.6,2.6,2.6,2.6,0,0,0,2.5-2.6"/>
  <line class="a" x1="1389" y1="163.1" x2="1389" y2="107.9"/>
  <line class="a" x1="1346.5" y1="107.9" x2="1346.5" y2="163.1"/>
  <path class="a" d="M1341.4,163.1a2.6,2.6,0,0,0,2.6,2.6,2.6,2.6,0,0,0,2.5-2.6"/>
  <line class="a" x1="1341.4" y1="163.1" x2="1341.4" y2="107.9"/>
  <path class="a" d="M1346.5,107.9a2.6,2.6,0,0,0-2.5-2.6,2.6,2.6,0,0,0-2.6,2.6"/>
  <path class="a" d="M519.1,152.5a8.5,8.5,0,0,0-8.5-8.5"/>
  <line class="a" x1="510.6" y1="144" x2="482.2" y2="144"/>
  <path class="a" d="M476.6,138.3a5.6,5.6,0,0,0,5.6,5.7"/>
  <line class="a" x1="476.6" y1="138.3" x2="476.6" y2="132.7"/>
  <path class="a" d="M482.2,127a5.6,5.6,0,0,0-5.6,5.7"/>
  <line class="a" x1="482.2" y1="127" x2="510.6" y2="127"/>
  <path class="a" d="M510.6,127a8.5,8.5,0,0,0,8.5-8.5"/>
  <path class="a" d="M745.9,152.5a7.8,7.8,0,0,0-7.1-8.5"/>
  <line class="a" x1="738.8" y1="144" x2="710.4" y2="144"/>
  <path class="a" d="M704.8,138.3a5.6,5.6,0,0,0,5.6,5.7"/>
  <line class="a" x1="704.8" y1="138.3" x2="704.8" y2="132.7"/>
  <path class="a" d="M710.4,127a5.6,5.6,0,0,0-5.6,5.7"/>
  <line class="a" x1="710.4" y1="127" x2="738.8" y2="127"/>
  <path class="a" d="M738.8,127a8.5,8.5,0,0,0,8.5-8.5"/>
  <path class="a" d="M927.3,118.5a8.5,8.5,0,0,0,8.5,8.5"/>
  <line class="a" x1="935.8" y1="127" x2="964.1" y2="127"/>
  <path class="a" d="M969.8,132.7a5.6,5.6,0,0,0-5.7-5.7"/>
  <line class="a" x1="969.8" y1="132.7" x2="969.8" y2="138.3"/>
  <path class="a" d="M964.1,144a5.6,5.6,0,0,0,5.7-5.7"/>
  <line class="a" x1="964.1" y1="144" x2="935.8" y2="144"/>
  <path class="a" d="M935.8,144a8.5,8.5,0,0,0-8.5,8.5"/>
  <path class="a" d="M1154.1,118.4a8.5,8.5,0,0,0,8.5,8.5"/>
  <line class="a" x1="1162.6" y1="126.9" x2="1190.9" y2="126.9"/>
  <path class="a" d="M1196.6,132.6a5.8,5.8,0,0,0-5.7-5.7"/>
  <line class="a" x1="1196.6" y1="132.6" x2="1196.6" y2="138.3"/>
  <path class="a" d="M1190.9,143.9a5.7,5.7,0,0,0,5.7-5.6"/>
  <line class="a" x1="1190.9" y1="143.9" x2="1162.6" y2="143.9"/>
  <path class="a" d="M1162.6,143.9a8.5,8.5,0,0,0-8.5,8.5"/>
  <line class="a" x1="283.8" y1="93" x2="1389.3" y2="93"/>
  <path class="a" d="M14.5,84.5A8.5,8.5,0,0,0,23,93"/>
  <line class="a" x1="14.5" y1="84.5" x2="14.5" y2="71.7"/>
  <path class="a" d="M14.5,71.7a2.6,2.6,0,0,0,2.6-2.5,2.6,2.6,0,0,0-2.6-2.6"/>
  <line class="a" x1="14.5" y1="66.6" x2="14.5" y2="34.3"/>
  <path class="a" d="M14.5,34.3a2.6,2.6,0,1,0,0-5.1"/>
  <line class="a" x1="14.5" y1="29.2" x2="14.5" y2="16.4"/>
  <path class="a" d="M23,7.9a8.5,8.5,0,0,0-8.5,8.5"/>
  <line class="a" x1="23" y1="7.9" x2="57.3" y2="7.9"/>
  <path class="a" d="M65.8,16.4a8.5,8.5,0,0,0-8.5-8.5"/>
  <line class="a" x1="65.8" y1="16.4" x2="65.8" y2="31.7"/>
  <path class="a" d="M65.8,31.7a2.6,2.6,0,0,0,2.6,2.6,2.5,2.5,0,0,0,2.5-2.6"/>
  <line class="a" x1="70.9" y1="31.7" x2="70.9" y2="16.4"/>
  <path class="a" d="M79.4,7.9a8.5,8.5,0,0,0-8.5,8.5"/>
  <path class="a" d="M638.4,16.4a8.5,8.5,0,0,0-8.5-8.5"/>
  <line class="a" x1="638.4" y1="16.4" x2="638.4" y2="31.7"/>
  <path class="a" d="M638.4,31.7a2.6,2.6,0,0,0,2.6,2.6,2.5,2.5,0,0,0,2.5-2.6"/>
  <line class="a" x1="643.5" y1="31.7" x2="643.5" y2="16.4"/>
  <path class="a" d="M652,7.9a8.5,8.5,0,0,0-8.5,8.5"/>
  <line class="a" x1="652" y1="7.9" x2="686.3" y2="7.9"/>
  <path class="a" d="M694.8,16.4a8.5,8.5,0,0,0-8.5-8.5"/>
  <path class="a" d="M694.8,29.2a2.6,2.6,0,0,0,0,5.1"/>
  <path class="a" d="M694.8,66.6a2.6,2.6,0,0,0-2.5,2.6,2.5,2.5,0,0,0,2.5,2.5"/>
  <path class="a" d="M686.3,93a8.5,8.5,0,0,0,8.5-8.5"/>
  <line class="a" x1="680.7" y1="93" x2="646.4" y2="93"/>
  <path class="a" d="M643.5,84.5A8.5,8.5,0,0,0,652,93"/>
  <line class="a" x1="643.5" y1="84.5" x2="643.5" y2="69.2"/>
  <path class="a" d="M643.5,69.2a2.6,2.6,0,0,0-2.5-2.6,2.6,2.6,0,0,0-2.6,2.6"/>
  <line class="a" x1="638.4" y1="69.2" x2="638.4" y2="84.5"/>
  <path class="a" d="M629.9,93a8.5,8.5,0,0,0,8.5-8.5"/>
  <path class="a" d="M70.9,84.5A8.5,8.5,0,0,0,79.4,93"/>
  <line class="a" x1="70.9" y1="84.5" x2="70.9" y2="69.2"/>
  <path class="a" d="M70.9,69.2a2.6,2.6,0,0,0-2.5-2.6,2.6,2.6,0,0,0-2.6,2.6"/>
  <line class="a" x1="65.8" y1="69.2" x2="65.8" y2="84.5"/>
  <path class="a" d="M57.3,93a8.5,8.5,0,0,0,8.5-8.5"/>
  <line class="a" x1="732" y1="93" x2="697.7" y2="93"/>
  <path class="a" d="M91,801.6a8.6,8.6,0,0,0,8.6-8.5"/>
  <line class="a" x1="91" y1="801.6" x2="78.3" y2="801.6"/>
  <path class="a" d="M78.3,801.6a2.6,2.6,0,0,0-2.6-2.5,2.5,2.5,0,0,0-2.5,2.5"/>
  <line class="a" x1="73.2" y1="801.6" x2="40.9" y2="801.6"/>
  <path class="a" d="M40.9,801.6a2.6,2.6,0,0,0-2.6-2.5,2.5,2.5,0,0,0-2.5,2.5"/>
  <line class="a" x1="35.8" y1="801.6" x2="23" y2="801.6"/>
  <path class="a" d="M14.5,793.1a8.5,8.5,0,0,0,8.5,8.5"/>
  <line class="a" x1="14.5" y1="793.1" x2="14.5" y2="758.8"/>
  <path class="a" d="M23,750.3a8.5,8.5,0,0,0-8.5,8.5"/>
  <line class="a" x1="23" y1="750.3" x2="38.3" y2="750.3"/>
  <path class="a" d="M38.3,750.3a2.6,2.6,0,0,0,2.6-2.5,2.6,2.6,0,0,0-2.6-2.6"/>
  <line class="a" x1="38.3" y1="745.2" x2="23" y2="745.2"/>
  <path class="a" d="M14.5,736.7a8.5,8.5,0,0,0,8.5,8.5"/>
  <path class="a" d="M23,149.4a8.5,8.5,0,0,0-8.5,8.5"/>
  <line class="a" x1="23" y1="149.4" x2="38.3" y2="149.4"/>
  <path class="a" d="M38.3,149.4a2.6,2.6,0,0,0,2.6-2.6,2.6,2.6,0,0,0-2.6-2.5"/>
  <line class="a" x1="38.3" y1="144.3" x2="23" y2="144.3"/>
  <path class="a" d="M14.5,135.8a8.5,8.5,0,0,0,8.5,8.5"/>
  <line class="a" x1="14.5" y1="135.8" x2="14.5" y2="101.5"/>
  <path class="a" d="M23,93a8.5,8.5,0,0,0-8.5,8.5"/>
  <path class="a" d="M35.8,93a2.5,2.5,0,0,0,2.5,2.5A2.6,2.6,0,0,0,40.9,93"/>
  <path class="a" d="M73.2,93a2.5,2.5,0,0,0,2.5,2.5A2.6,2.6,0,0,0,78.3,93"/>
  <path class="a" d="M99.6,101.5A8.6,8.6,0,0,0,91,93"/>
  <path class="a" d="M91,144.3a8.6,8.6,0,0,0,8.6-8.5"/>
  <line class="a" x1="91" y1="144.3" x2="75.7" y2="144.3"/>
  <path class="a" d="M75.7,144.3a2.5,2.5,0,0,0-2.5,2.5,2.6,2.6,0,0,0,2.5,2.6"/>
  <line class="a" x1="75.7" y1="149.4" x2="91" y2="149.4"/>
  <path class="a" d="M99.6,157.9a8.6,8.6,0,0,0-8.6-8.5"/>
  <path class="a" d="M91,745.2a8.6,8.6,0,0,0,8.6-8.5"/>
  <line class="a" x1="91" y1="745.2" x2="75.7" y2="745.2"/>
  <path class="a" d="M75.7,745.2a2.6,2.6,0,0,0-2.5,2.6,2.5,2.5,0,0,0,2.5,2.5"/>
  <line class="a" x1="75.7" y1="750.3" x2="91" y2="750.3"/>
  <path class="a" d="M99.6,758.8a8.6,8.6,0,0,0-8.6-8.5"/>
  <line class="a" x1="14.5" y1="736.7" x2="14.5" y2="157.9"/>
  <path class="a" d="M176.1,801.6a8.5,8.5,0,0,0,8.5-8.5"/>
  <line class="a" x1="176.1" y1="801.6" x2="163.3" y2="801.6"/>
  <path class="a" d="M163.3,801.6a2.5,2.5,0,0,0-2.5-2.5,2.6,2.6,0,0,0-2.6,2.5"/>
  <line class="a" x1="158.2" y1="801.6" x2="125.9" y2="801.6"/>
  <path class="a" d="M125.9,801.6a2.5,2.5,0,0,0-2.5-2.5,2.6,2.6,0,0,0-2.6,2.5"/>
  <line class="a" x1="120.8" y1="801.6" x2="108.1" y2="801.6"/>
  <path class="a" d="M99.6,793.1a8.5,8.5,0,0,0,8.5,8.5"/>
  <line class="a" x1="99.6" y1="793.1" x2="99.6" y2="758.8"/>
  <path class="a" d="M108.1,750.3a8.5,8.5,0,0,0-8.5,8.5"/>
  <line class="a" x1="108.1" y1="750.3" x2="123.4" y2="750.3"/>
  <path class="a" d="M123.4,750.3a2.5,2.5,0,0,0,2.5-2.5,2.6,2.6,0,0,0-2.5-2.6"/>
  <line class="a" x1="123.4" y1="745.2" x2="108.1" y2="745.2"/>
  <path class="a" d="M99.6,736.7a8.5,8.5,0,0,0,8.5,8.5"/>
  <path class="a" d="M108.1,149.4a8.5,8.5,0,0,0-8.5,8.5"/>
  <line class="a" x1="108.1" y1="149.4" x2="123.4" y2="149.4"/>
  <path class="a" d="M123.4,149.4a2.6,2.6,0,0,0,2.5-2.6,2.5,2.5,0,0,0-2.5-2.5"/>
  <line class="a" x1="123.4" y1="144.3" x2="108.1" y2="144.3"/>
  <path class="a" d="M99.6,135.8a8.5,8.5,0,0,0,8.5,8.5"/>
  <line class="a" x1="99.6" y1="135.8" x2="99.6" y2="101.5"/>
  <path class="a" d="M108.1,93a8.5,8.5,0,0,0-8.5,8.5"/>
  <path class="a" d="M120.8,93a2.6,2.6,0,0,0,2.6,2.5,2.5,2.5,0,0,0,2.5-2.5"/>
  <path class="a" d="M158.2,93a2.6,2.6,0,0,0,2.6,2.5,2.5,2.5,0,0,0,2.5-2.5"/>
  <path class="a" d="M184.6,101.5a8.5,8.5,0,0,0-8.5-8.5"/>
  <path class="a" d="M176.1,144.3a8.5,8.5,0,0,0,8.5-8.5"/>
  <line class="a" x1="176.1" y1="144.3" x2="160.8" y2="144.3"/>
  <path class="a" d="M160.8,144.3a2.6,2.6,0,0,0-2.6,2.5,2.6,2.6,0,0,0,2.6,2.6"/>
  <line class="a" x1="160.8" y1="149.4" x2="176.1" y2="149.4"/>
  <path class="a" d="M184.6,157.9a8.5,8.5,0,0,0-8.5-8.5"/>
  <path class="a" d="M176.1,745.2a8.5,8.5,0,0,0,8.5-8.5"/>
  <line class="a" x1="176.1" y1="745.2" x2="160.8" y2="745.2"/>
  <path class="a" d="M160.8,745.2a2.6,2.6,0,0,0-2.6,2.6,2.6,2.6,0,0,0,2.6,2.5"/>
  <line class="a" x1="160.8" y1="750.3" x2="176.1" y2="750.3"/>
  <path class="a" d="M184.6,758.8a8.5,8.5,0,0,0-8.5-8.5"/>
  <line class="a" x1="99.6" y1="736.7" x2="99.6" y2="157.9"/>
  <path class="a" d="M261.1,801.6a8.5,8.5,0,0,0,8.5-8.5"/>
  <line class="a" x1="261.1" y1="801.6" x2="248.4" y2="801.6"/>
  <path class="a" d="M248.4,801.6a2.6,2.6,0,0,0-2.6-2.5,2.5,2.5,0,0,0-2.5,2.5"/>
  <line class="a" x1="243.3" y1="801.6" x2="211" y2="801.6"/>
  <path class="a" d="M211,801.6a2.6,2.6,0,0,0-2.6-2.5,2.5,2.5,0,0,0-2.5,2.5"/>
  <line class="a" x1="205.9" y1="801.6" x2="193.1" y2="801.6"/>
  <path class="a" d="M184.6,793.1a8.5,8.5,0,0,0,8.5,8.5"/>
  <line class="a" x1="184.6" y1="793.1" x2="184.6" y2="758.8"/>
  <path class="a" d="M193.1,750.3a8.5,8.5,0,0,0-8.5,8.5"/>
  <line class="a" x1="193.1" y1="750.3" x2="208.4" y2="750.3"/>
  <path class="a" d="M208.4,750.3a2.6,2.6,0,0,0,2.6-2.5,2.6,2.6,0,0,0-2.6-2.6"/>
  <line class="a" x1="208.4" y1="745.2" x2="193.1" y2="745.2"/>
  <path class="a" d="M184.6,736.7a8.5,8.5,0,0,0,8.5,8.5"/>
  <path class="a" d="M193.1,149.4a8.5,8.5,0,0,0-8.5,8.5"/>
  <line class="a" x1="193.1" y1="149.4" x2="208.4" y2="149.4"/>
  <path class="a" d="M208.4,149.4a2.6,2.6,0,0,0,2.6-2.6,2.6,2.6,0,0,0-2.6-2.5"/>
  <line class="a" x1="208.4" y1="144.3" x2="193.1" y2="144.3"/>
  <path class="a" d="M184.6,135.8a8.5,8.5,0,0,0,8.5,8.5"/>
  <line class="a" x1="184.6" y1="135.8" x2="184.6" y2="101.5"/>
  <path class="a" d="M193.1,93a8.5,8.5,0,0,0-8.5,8.5"/>
  <path class="a" d="M205.9,93a2.5,2.5,0,0,0,2.5,2.5A2.6,2.6,0,0,0,211,93"/>
  <path class="a" d="M243.3,93a2.5,2.5,0,0,0,2.5,2.5,2.6,2.6,0,0,0,2.6-2.5"/>
  <path class="a" d="M269.6,101.5a8.5,8.5,0,0,0-8.5-8.5"/>
  <path class="a" d="M261.1,144.3a8.5,8.5,0,0,0,8.5-8.5"/>
  <line class="a" x1="261.1" y1="144.3" x2="245.8" y2="144.3"/>
  <path class="a" d="M245.8,144.3a2.5,2.5,0,0,0-2.5,2.5,2.6,2.6,0,0,0,2.5,2.6"/>
  <line class="a" x1="245.8" y1="149.4" x2="261.1" y2="149.4"/>
  <path class="a" d="M269.6,157.9a8.5,8.5,0,0,0-8.5-8.5"/>
  <path class="a" d="M261.1,745.2a8.5,8.5,0,0,0,8.5-8.5"/>
  <line class="a" x1="261.1" y1="745.2" x2="245.8" y2="745.2"/>
  <path class="a" d="M245.8,745.2a2.6,2.6,0,0,0-2.5,2.6,2.5,2.5,0,0,0,2.5,2.5"/>
  <line class="a" x1="245.8" y1="750.3" x2="261.1" y2="750.3"/>
  <path class="a" d="M269.6,758.8a8.5,8.5,0,0,0-8.5-8.5"/>
  <line class="a" x1="184.6" y1="736.7" x2="184.6" y2="157.9"/>
  <line class="a" x1="269.6" y1="101.5" x2="269.6" y2="135.8"/>
  <line class="a" x1="269.6" y1="157.9" x2="269.6" y2="736.7"/>
  <line class="a" x1="269.6" y1="758.8" x2="269.6" y2="793.1"/>
  <line class="a" x1="269.6" y1="135.8" x2="269.6" y2="157.9"/>
  <line class="a" x1="40.9" y1="93" x2="45.4" y2="93"/>
  <line class="a" x1="629.9" y1="7.9" x2="79.4" y2="7.9"/>
  <path class="a" d="M694.8,84.5a8.5,8.5,0,0,0,8.5,8.5"/>
  <line class="a" x1="694.8" y1="84.5" x2="694.8" y2="71.7"/>
  <path class="a" d="M694.8,71.7a2.6,2.6,0,0,0,2.6-2.5,2.6,2.6,0,0,0-2.6-2.6"/>
  <line class="a" x1="694.8" y1="66.6" x2="694.8" y2="34.3"/>
  <path class="a" d="M694.8,34.3a2.6,2.6,0,1,0,0-5.1"/>
  <line class="a" x1="694.8" y1="29.2" x2="694.8" y2="16.4"/>
  <path class="a" d="M703.3,7.9a8.5,8.5,0,0,0-8.5,8.5"/>
  <line class="a" x1="703.3" y1="7.9" x2="737.6" y2="7.9"/>
  <path class="a" d="M746.1,16.4a8.5,8.5,0,0,0-8.5-8.5"/>
  <line class="a" x1="746.1" y1="16.4" x2="746.1" y2="31.7"/>
  <path class="a" d="M746.1,31.7a2.6,2.6,0,0,0,2.6,2.6,2.5,2.5,0,0,0,2.5-2.6"/>
  <line class="a" x1="751.2" y1="31.7" x2="751.2" y2="16.4"/>
  <path class="a" d="M759.7,7.9a8.5,8.5,0,0,0-8.5,8.5"/>
  <path class="a" d="M1318.7,16.4a8.5,8.5,0,0,0-8.5-8.5"/>
  <line class="a" x1="1318.7" y1="16.4" x2="1318.7" y2="31.7"/>
  <path class="a" d="M1318.7,31.7a2.6,2.6,0,0,0,2.6,2.6,2.5,2.5,0,0,0,2.5-2.6"/>
  <line class="a" x1="1323.8" y1="31.7" x2="1323.8" y2="16.4"/>
  <path class="a" d="M1332.3,7.9a8.5,8.5,0,0,0-8.5,8.5"/>
  <line class="a" x1="1332.3" y1="7.9" x2="1366.6" y2="7.9"/>
  <path class="a" d="M1375.1,16.4a8.5,8.5,0,0,0-8.5-8.5"/>
  <path class="a" d="M1375.1,29.2a2.6,2.6,0,0,0,0,5.1"/>
  <path class="a" d="M1375.1,66.6a2.6,2.6,0,0,0-2.5,2.6,2.5,2.5,0,0,0,2.5,2.5"/>
  <path class="a" d="M1366.6,93a8.5,8.5,0,0,0,8.5-8.5"/>
  <path class="a" d="M1323.8,84.5a8.5,8.5,0,0,0,8.5,8.5"/>
  <line class="a" x1="1323.8" y1="84.5" x2="1323.8" y2="69.2"/>
  <path class="a" d="M1323.8,69.2a2.6,2.6,0,0,0-2.5-2.6,2.6,2.6,0,0,0-2.6,2.6"/>
  <line class="a" x1="1318.7" y1="69.2" x2="1318.7" y2="84.5"/>
  <path class="a" d="M1310.2,93a8.5,8.5,0,0,0,8.5-8.5"/>
  <path class="a" d="M751.2,84.5a8.5,8.5,0,0,0,8.5,8.5"/>
  <line class="a" x1="751.2" y1="84.5" x2="751.2" y2="69.2"/>
  <path class="a" d="M751.2,69.2a2.6,2.6,0,0,0-2.5-2.6,2.6,2.6,0,0,0-2.6,2.6"/>
  <line class="a" x1="746.1" y1="69.2" x2="746.1" y2="84.5"/>
  <path class="a" d="M737.6,93a8.5,8.5,0,0,0,8.5-8.5"/>
  <line class="a" x1="1310.2" y1="7.9" x2="759.7" y2="7.9"/>
  <line class="a" x1="1375.1" y1="16.4" x2="1375.1" y2="29.2"/>
  <line class="a" x1="1375.1" y1="34.3" x2="1375.1" y2="66.6"/>
  <line class="a" x1="1375.1" y1="71.7" x2="1375.1" y2="84.5"/>
  <line class="a" x1="23" y1="93" x2="57.3" y2="93"/>
  <line class="a" x1="73.2" y1="93" x2="57.3" y2="93"/>
  <line class="a" x1="79.4" y1="93" x2="283.8" y2="93"/>
</svg>
